<svg width="567" height="260" viewBox="0 0 567 260" fill="none" xmlns="http://www.w3.org/2000/svg">
<g filter="url(#filter0_dddd_1536_7119)">
<path d="M115.695 213.24C110.095 213.24 105.708 211.747 102.535 208.76C99.3614 205.587 97.7747 201.107 97.7747 195.32V173.48H28.6147C22.828 173.48 18.1614 172.267 14.6147 169.84C11.2547 167.413 9.57469 163.587 9.57469 158.36C9.57469 155.373 10.3214 152.107 11.8147 148.56C13.4947 145.013 16.388 140.347 20.4947 134.56L97.2147 23.4C99.828 19.48 102.721 16.4933 105.895 14.44C109.068 12.3867 112.708 11.36 116.815 11.36C121.668 11.36 125.681 12.8533 128.855 15.84C132.028 18.64 133.615 23.12 133.615 29.28V143.8H147.335C152.748 143.8 156.761 145.107 159.375 147.72C162.175 150.147 163.575 153.787 163.575 158.64C163.575 163.493 162.175 167.227 159.375 169.84C156.761 172.267 152.748 173.48 147.335 173.48H133.615V195.32C133.615 201.107 132.028 205.587 128.855 208.76C125.681 211.747 121.295 213.24 115.695 213.24ZM97.7747 143.8V56.44H105.895L39.8147 153.32V143.8H97.7747Z" fill="black"/>
<g clip-path="url(#clip0_1536_7119)">
<path fill-rule="evenodd" clip-rule="evenodd" d="M238.918 172.228C238.142 174.11 237.544 176.061 237.129 178.055C221.338 158.74 217.887 154.351 216.152 129.694H216.528C217.565 126.277 217.762 120.809 219.639 119.46C220.251 115.989 220.413 112.452 220.122 108.939C220.122 108.453 220.015 108.004 219.943 107.536C223.896 112.716 224.969 117.338 228.259 124.586C231.55 131.834 233.928 132.967 242.029 134.442C244.243 134.841 246.487 135.046 248.736 135.053C257.016 135.053 265.063 133.812 268.264 126.528C269.212 124.352 270.786 122.05 271.93 119.658C273.433 116.493 276.097 114.64 277.707 114.712C279.316 114.784 281.659 116.762 283.072 119.928C285.11 124.46 287.793 129.478 289.528 130.827C290.745 131.893 292.145 132.728 293.659 133.291C298.791 135.287 308.734 135.233 314.207 134.334C314.618 134.334 315.011 134.19 315.423 134.1C318.676 133.314 321.569 131.444 323.631 128.794C326.497 125.068 328.655 120.843 329.998 116.331C331.096 113.503 332.493 110.802 334.165 108.274C334.326 108.058 334.558 107.77 334.844 107.446C334.844 109.245 334.844 111.259 334.844 113.327C335.159 117.322 335.69 121.297 336.436 125.233C334.916 149.477 330.338 158.47 315.351 177.804C310.809 159.675 280.067 153.326 276.33 160.124C270.357 152.319 242.923 162.75 238.918 172.228ZM249.147 106.007C247.52 111.709 260.038 111.853 262.381 119.64L263.418 113.147C264.348 105.27 254.476 106.349 249.111 105.953L249.147 106.007ZM311.739 102.518C310.129 108.256 322.648 108.363 324.955 116.169L326.01 109.676C326.94 101.799 317.068 102.86 311.703 102.482L311.739 102.518ZM218.048 98.1839C218.048 83.4182 219.282 71.9258 223.413 70.1812C226.095 64.6059 229.69 63.203 233.785 64.2462C234.572 60.1636 233.052 55.4695 230.995 50.2538C234.393 51.8005 237.737 57.1241 239.079 64.3901C248.271 62.1239 259.859 62.106 273.933 64.3901C276.408 66.5312 279.617 67.6155 282.875 67.4115C287.811 67.2137 291.817 65.3792 296.127 65.5051C298.523 65.5051 300.83 67.4475 303.459 67.7173C304.854 67.8612 306.231 67.9511 307.626 67.9691C314.33 68.1577 320.973 66.6421 326.94 63.5627C351.619 50.8114 339.458 19.4994 316.889 13.6183C303.28 10.0213 286.255 12.1256 271.591 6.98185C267.746 5.59701 263.686 3.97835 259.287 2L267.245 12.3234C254.154 7.91707 247.77 5.93872 238.631 11.568C244.408 10.8127 248.914 11.1724 250.417 11.9997C243.031 13.9061 235.895 17.3952 231.299 21.9094C237.523 21.7773 243.631 23.6211 248.753 27.179C237.38 27.179 228.831 25.2007 220.963 26.028C216.528 26.4956 204.313 29.2293 210.537 35.65C211.293 36.3082 212.189 36.7833 213.156 37.0389C214.123 37.2946 215.136 37.324 216.116 37.1248C216.545 40.0203 210.608 40.7218 207.854 42.5203C203.258 45.7036 197.75 51.1531 198 57.1781C198.128 58.6786 198.583 60.1324 199.334 61.4351C200.086 62.7379 201.114 63.8575 202.346 64.7138C198 72.3035 199.306 82.0873 205.243 93.7236L210.036 103.364L212.915 129.694H213.022C213.38 163.29 217.475 216.867 261.898 222.838C266.675 223.295 271.494 223.059 276.204 222.137C305.05 229.331 335.22 193.019 337.652 167.354C338.863 155.947 339.21 144.463 338.689 133.003L337.491 128.83C337.619 129.097 337.762 129.355 337.92 129.604C337.92 122.841 337.652 119.172 339.082 112.59C339.779 108.614 340.007 104.57 339.762 100.54C339.825 100.25 339.825 99.949 339.762 99.6587C339.581 96.5568 339.908 93.4461 340.728 90.4504C342.516 84.839 345.95 83.9038 342.516 75.6847C339.494 67.4295 333.878 65.2354 325.92 68.4906C325.847 68.8819 325.874 69.2855 325.999 69.6631C326.125 70.0408 326.344 70.3801 326.636 70.6488C330.212 74.9293 328.692 76.8537 330.409 82.8967C331.071 85.2527 332.197 87.3749 332.966 90.5403C333.616 93.008 334.082 95.5209 334.361 98.058C320.233 96.2595 307.751 96.2595 293.73 101.403C289.259 103.04 283.841 106.655 280.121 107.626C274.506 109.119 269.391 105.072 264.312 102.932C251.095 97.3989 236.643 95.5356 222.465 97.5365C220.961 97.6018 219.466 97.7943 217.994 98.112L218.048 98.1839ZM250.756 184.206C251.348 180.863 252.742 177.714 254.816 175.034C258.106 170.214 260.181 170.52 264.974 171.275C273.454 172.621 282.109 172.359 290.493 170.502C296.001 170.502 301.653 180.124 301.098 184.638C300.544 189.152 292.478 193.954 288.151 193.918C284.288 193.918 280.21 191.814 275.954 187.587C267.299 196.58 258.446 195.537 250.756 184.206Z" fill="black"/>
</g>
<path d="M489.695 213.24C484.095 213.24 479.708 211.747 476.535 208.76C473.361 205.587 471.775 201.107 471.775 195.32V173.48H402.615C396.828 173.48 392.161 172.267 388.615 169.84C385.255 167.413 383.575 163.587 383.575 158.36C383.575 155.373 384.321 152.107 385.815 148.56C387.495 145.013 390.388 140.347 394.495 134.56L471.215 23.4C473.828 19.48 476.721 16.4933 479.895 14.44C483.068 12.3867 486.708 11.36 490.815 11.36C495.668 11.36 499.681 12.8533 502.855 15.84C506.028 18.64 507.615 23.12 507.615 29.28V143.8H521.335C526.748 143.8 530.761 145.107 533.375 147.72C536.175 150.147 537.575 153.787 537.575 158.64C537.575 163.493 536.175 167.227 533.375 169.84C530.761 172.267 526.748 173.48 521.335 173.48H507.615V195.32C507.615 201.107 506.028 205.587 502.855 208.76C499.681 211.747 495.295 213.24 489.695 213.24ZM471.775 143.8V56.44H479.895L413.815 153.32V143.8H471.775Z" fill="black"/>
</g>
<defs>
<filter id="filter0_dddd_1536_7119" x="-4" y="0" width="575" height="260" filterUnits="userSpaceOnUse" color-interpolation-filters="sRGB">
<feFlood flood-opacity="0" result="BackgroundImageFix"/>
<feColorMatrix in="SourceAlpha" type="matrix" values="0 0 0 0 0 0 0 0 0 0 0 0 0 0 0 0 0 0 127 0" result="hardAlpha"/>
<feOffset dx="1" dy="2"/>
<feGaussianBlur stdDeviation="2"/>
<feColorMatrix type="matrix" values="0 0 0 0 0 0 0 0 0 0 0 0 0 0 0 0 0 0 0.05 0"/>
<feBlend mode="normal" in2="BackgroundImageFix" result="effect1_dropShadow_1536_7119"/>
<feColorMatrix in="SourceAlpha" type="matrix" values="0 0 0 0 0 0 0 0 0 0 0 0 0 0 0 0 0 0 127 0" result="hardAlpha"/>
<feOffset dx="4" dy="6"/>
<feGaussianBlur stdDeviation="4"/>
<feColorMatrix type="matrix" values="0 0 0 0 0 0 0 0 0 0 0 0 0 0 0 0 0 0 0.09 0"/>
<feBlend mode="normal" in2="effect1_dropShadow_1536_7119" result="effect2_dropShadow_1536_7119"/>
<feColorMatrix in="SourceAlpha" type="matrix" values="0 0 0 0 0 0 0 0 0 0 0 0 0 0 0 0 0 0 127 0" result="hardAlpha"/>
<feOffset dx="10" dy="14"/>
<feGaussianBlur stdDeviation="5"/>
<feColorMatrix type="matrix" values="0 0 0 0 0 0 0 0 0 0 0 0 0 0 0 0 0 0 0.05 0"/>
<feBlend mode="normal" in2="effect2_dropShadow_1536_7119" result="effect3_dropShadow_1536_7119"/>
<feColorMatrix in="SourceAlpha" type="matrix" values="0 0 0 0 0 0 0 0 0 0 0 0 0 0 0 0 0 0 127 0" result="hardAlpha"/>
<feOffset dx="17" dy="25"/>
<feGaussianBlur stdDeviation="6"/>
<feColorMatrix type="matrix" values="0 0 0 0 0 0 0 0 0 0 0 0 0 0 0 0 0 0 0.01 0"/>
<feBlend mode="normal" in2="effect3_dropShadow_1536_7119" result="effect4_dropShadow_1536_7119"/>
<feBlend mode="normal" in="SourceGraphic" in2="effect4_dropShadow_1536_7119" result="shape"/>
</filter>
<clipPath id="clip0_1536_7119">
<rect width="146" height="221" fill="white" transform="translate(198 2)"/>
</clipPath>
</defs>
</svg>
