<svg width="576" height="260" viewBox="0 0 576 260" fill="none" xmlns="http://www.w3.org/2000/svg">
<g filter="url(#filter0_dddd_1941_32164)">
<path d="M93.52 210.5V172.42H5.6V137.98L96.88 14.5H143.92V130.98H165.2V172.42H143.92V210.5H93.52ZM50.68 130.98H93.52V70.22L50.68 130.98Z" fill="white"/>
<g clip-path="url(#clip0_1941_32164)">
<path fill-rule="evenodd" clip-rule="evenodd" d="M245.918 172.228C245.142 174.11 244.544 176.061 244.129 178.055C228.338 158.74 224.887 154.351 223.152 129.694H223.528C224.565 126.277 224.762 120.809 226.639 119.46C227.251 115.989 227.413 112.452 227.122 108.939C227.122 108.453 227.015 108.004 226.943 107.536C230.896 112.716 231.969 117.338 235.259 124.586C238.55 131.834 240.928 132.967 249.029 134.442C251.243 134.841 253.487 135.046 255.736 135.053C264.016 135.053 272.063 133.812 275.264 126.528C276.212 124.352 277.786 122.05 278.93 119.658C280.433 116.493 283.097 114.64 284.707 114.712C286.316 114.784 288.659 116.762 290.072 119.928C292.11 124.46 294.793 129.478 296.528 130.827C297.745 131.893 299.145 132.728 300.659 133.291C305.791 135.287 315.734 135.233 321.207 134.334C321.618 134.334 322.011 134.19 322.423 134.1C325.676 133.314 328.569 131.444 330.631 128.794C333.497 125.068 335.655 120.843 336.998 116.331C338.096 113.503 339.493 110.802 341.165 108.274C341.326 108.058 341.558 107.77 341.844 107.446C341.844 109.245 341.844 111.259 341.844 113.327C342.159 117.322 342.69 121.297 343.436 125.233C341.916 149.477 337.338 158.47 322.351 177.804C317.809 159.675 287.067 153.326 283.33 160.124C277.357 152.319 249.923 162.75 245.918 172.228ZM256.147 106.007C254.52 111.709 267.038 111.853 269.381 119.64L270.418 113.147C271.348 105.27 261.476 106.349 256.111 105.953L256.147 106.007ZM318.739 102.518C317.129 108.256 329.648 108.363 331.955 116.169L333.01 109.676C333.94 101.799 324.068 102.86 318.703 102.482L318.739 102.518ZM225.048 98.1839C225.048 83.4182 226.282 71.9258 230.413 70.1812C233.095 64.6059 236.69 63.203 240.785 64.2462C241.572 60.1636 240.052 55.4695 237.995 50.2538C241.393 51.8005 244.737 57.1241 246.079 64.3901C255.271 62.1239 266.859 62.106 280.933 64.3901C283.408 66.5312 286.617 67.6155 289.875 67.4115C294.811 67.2137 298.817 65.3792 303.127 65.5051C305.523 65.5051 307.83 67.4475 310.459 67.7173C311.854 67.8612 313.231 67.9511 314.626 67.9691C321.33 68.1577 327.973 66.6421 333.94 63.5627C358.619 50.8114 346.458 19.4994 323.889 13.6183C310.28 10.0213 293.255 12.1256 278.591 6.98185C274.746 5.59701 270.686 3.97835 266.287 2L274.245 12.3234C261.154 7.91707 254.77 5.93872 245.631 11.568C251.408 10.8127 255.914 11.1724 257.417 11.9997C250.031 13.9061 242.895 17.3952 238.299 21.9094C244.523 21.7773 250.631 23.6211 255.753 27.179C244.38 27.179 235.831 25.2007 227.963 26.028C223.528 26.4956 211.313 29.2293 217.537 35.65C218.293 36.3082 219.189 36.7833 220.156 37.0389C221.123 37.2946 222.136 37.324 223.116 37.1248C223.545 40.0203 217.608 40.7218 214.854 42.5203C210.258 45.7036 204.75 51.1531 205 57.1781C205.128 58.6786 205.583 60.1324 206.334 61.4351C207.086 62.7379 208.114 63.8575 209.346 64.7138C205 72.3035 206.306 82.0873 212.243 93.7236L217.036 103.364L219.915 129.694H220.022C220.38 163.29 224.475 216.867 268.898 222.838C273.675 223.295 278.494 223.059 283.204 222.137C312.05 229.331 342.22 193.019 344.652 167.354C345.863 155.947 346.21 144.463 345.689 133.003L344.491 128.83C344.619 129.097 344.762 129.355 344.92 129.604C344.92 122.841 344.652 119.172 346.082 112.59C346.779 108.614 347.007 104.57 346.762 100.54C346.825 100.25 346.825 99.949 346.762 99.6587C346.581 96.5568 346.908 93.4461 347.728 90.4504C349.516 84.839 352.95 83.9038 349.516 75.6847C346.494 67.4295 340.878 65.2354 332.92 68.4906C332.847 68.8819 332.874 69.2855 332.999 69.6631C333.125 70.0408 333.344 70.3801 333.636 70.6488C337.212 74.9293 335.692 76.8537 337.409 82.8967C338.071 85.2527 339.197 87.3749 339.966 90.5403C340.616 93.008 341.082 95.5209 341.361 98.058C327.233 96.2595 314.751 96.2595 300.73 101.403C296.259 103.04 290.841 106.655 287.121 107.626C281.506 109.119 276.391 105.072 271.312 102.932C258.095 97.3989 243.643 95.5356 229.465 97.5365C227.961 97.6018 226.466 97.7943 224.994 98.112L225.048 98.1839ZM257.756 184.206C258.348 180.863 259.742 177.714 261.816 175.034C265.106 170.214 267.181 170.52 271.974 171.275C280.454 172.621 289.109 172.359 297.493 170.502C303.001 170.502 308.653 180.124 308.098 184.638C307.544 189.152 299.478 193.954 295.151 193.918C291.288 193.918 287.21 191.814 282.954 187.587C274.299 196.58 265.446 195.537 257.756 184.206Z" fill="white"/>
</g>
<path d="M474.52 210.5V172.42H386.6V137.98L477.88 14.5H524.92V130.98H546.2V172.42H524.92V210.5H474.52ZM431.68 130.98H474.52V70.22L431.68 130.98Z" fill="white"/>
</g>
<defs>
<filter id="filter0_dddd_1941_32164" x="-4" y="0" width="589" height="260" filterUnits="userSpaceOnUse" color-interpolation-filters="sRGB">
<feFlood flood-opacity="0" result="BackgroundImageFix"/>
<feColorMatrix in="SourceAlpha" type="matrix" values="0 0 0 0 0 0 0 0 0 0 0 0 0 0 0 0 0 0 127 0" result="hardAlpha"/>
<feOffset dx="1" dy="2"/>
<feGaussianBlur stdDeviation="2"/>
<feColorMatrix type="matrix" values="0 0 0 0 0 0 0 0 0 0 0 0 0 0 0 0 0 0 0.05 0"/>
<feBlend mode="normal" in2="BackgroundImageFix" result="effect1_dropShadow_1941_32164"/>
<feColorMatrix in="SourceAlpha" type="matrix" values="0 0 0 0 0 0 0 0 0 0 0 0 0 0 0 0 0 0 127 0" result="hardAlpha"/>
<feOffset dx="4" dy="6"/>
<feGaussianBlur stdDeviation="4"/>
<feColorMatrix type="matrix" values="0 0 0 0 0 0 0 0 0 0 0 0 0 0 0 0 0 0 0.09 0"/>
<feBlend mode="normal" in2="effect1_dropShadow_1941_32164" result="effect2_dropShadow_1941_32164"/>
<feColorMatrix in="SourceAlpha" type="matrix" values="0 0 0 0 0 0 0 0 0 0 0 0 0 0 0 0 0 0 127 0" result="hardAlpha"/>
<feOffset dx="10" dy="14"/>
<feGaussianBlur stdDeviation="5"/>
<feColorMatrix type="matrix" values="0 0 0 0 0 0 0 0 0 0 0 0 0 0 0 0 0 0 0.05 0"/>
<feBlend mode="normal" in2="effect2_dropShadow_1941_32164" result="effect3_dropShadow_1941_32164"/>
<feColorMatrix in="SourceAlpha" type="matrix" values="0 0 0 0 0 0 0 0 0 0 0 0 0 0 0 0 0 0 127 0" result="hardAlpha"/>
<feOffset dx="17" dy="25"/>
<feGaussianBlur stdDeviation="6"/>
<feColorMatrix type="matrix" values="0 0 0 0 0 0 0 0 0 0 0 0 0 0 0 0 0 0 0.01 0"/>
<feBlend mode="normal" in2="effect3_dropShadow_1941_32164" result="effect4_dropShadow_1941_32164"/>
<feBlend mode="normal" in="SourceGraphic" in2="effect4_dropShadow_1941_32164" result="shape"/>
</filter>
<clipPath id="clip0_1941_32164">
<rect width="146" height="221" fill="white" transform="translate(205 2)"/>
</clipPath>
</defs>
</svg>
