<svg width="24" height="24" viewBox="0 0 24 24" fill="none" xmlns="http://www.w3.org/2000/svg">
<path fill-rule="evenodd" clip-rule="evenodd" d="M12 22.5C6.201 22.5 1.5 17.7975 1.5 12C1.5 6.2025 6.201 1.5 12 1.5C17.799 1.5 22.5 6.2025 22.5 12C22.5 17.7975 17.799 22.5 12 22.5ZM12 0C5.37225 0 0 5.37 0 12C0 18.63 5.37225 24 12 24C18.6278 24 24 18.63 24 12C24 5.37 18.6278 0 12 0ZM12.6592 7.09497C12.4792 6.91497 12.2332 6.86247 12 6.90747C11.7668 6.86247 11.5208 6.91497 11.3408 7.09497L7.09875 11.34C6.8055 11.6325 6.8055 12.105 7.09875 12.405C7.3905 12.6975 7.866 12.6975 8.15925 12.405L11.25 9.30753V17.25C11.25 17.6625 11.5852 18 12 18C12.4148 18 12.75 17.6625 12.75 17.25V9.30753L15.8408 12.405C16.134 12.6975 16.6088 12.6975 16.9013 12.405C17.1945 12.105 17.1945 11.6325 16.9013 11.34L12.6592 7.09497Z" fill="#1C1C1C"/>
</svg>
