<svg width="32" height="34" viewBox="0 0 32 34" fill="none" xmlns="http://www.w3.org/2000/svg">
<path d="M4.98844 29.406C6.58793 31.3333 9.56486 31.3333 15.5187 31.3333H16.4803C22.4342 31.3333 25.4111 31.3333 27.0106 29.406M4.98844 29.406C3.38893 27.4788 3.93754 24.5528 5.03478 18.7009C5.81508 14.5394 6.20522 12.4586 7.68642 11.2293M27.0106 29.406C28.6101 27.4788 28.0615 24.5528 26.9643 18.7009C26.1839 14.5394 25.7938 12.4586 24.3126 11.2293M24.3126 11.2293C22.8314 10 20.7145 10 16.4803 10H15.5187C11.2847 10 9.16762 10 7.68642 11.2293" stroke="#ffffff" stroke-width="2"/>
<path d="M12 10.0003V8.66699C12 6.45786 13.7908 4.66699 16 4.66699C18.2092 4.66699 20 6.45786 20 8.66699V10.0003" stroke="#ffffff" stroke-width="2" stroke-linecap="round"/>
</svg>
