<svg width="32" height="34" viewBox="0 0 32 34" fill="none" xmlns="http://www.w3.org/2000/svg">
<path d="M4.98844 29.406C6.58793 31.3333 9.56486 31.3333 15.5187 31.3333H16.4803C22.4342 31.3333 25.4111 31.3333 27.0106 29.406M4.98844 29.406C3.38893 27.4788 3.93754 24.5528 5.03478 18.7009C5.81508 14.5394 6.20522 12.4586 7.68642 11.2293M27.0106 29.406C28.6101 27.4788 28.0615 24.5528 26.9643 18.7009C26.1839 14.5394 25.7938 12.4586 24.3126 11.2293M24.3126 11.2293C22.8314 10 20.7145 10 16.4803 10H15.5187C11.2847 10 9.16762 10 7.68642 11.2293" stroke="white" stroke-width="2"/>
<path d="M12 10.0003V8.66699C12 6.45786 13.7908 4.66699 16 4.66699C18.2092 4.66699 20 6.45786 20 8.66699V10.0003" stroke="white" stroke-width="2" stroke-linecap="round"/>
<circle cx="24" cy="8" r="8" fill="#C49B48"/>
<path d="M24.024 12.1076C23.04 12.1076 22.288 11.7356 21.768 10.9916C21.256 10.2396 21 9.16364 21 7.76364C21 6.81164 21.116 6.01564 21.348 5.37564C21.58 4.73564 21.92 4.25164 22.368 3.92364C22.816 3.59564 23.368 3.43164 24.024 3.43164C25.016 3.43164 25.768 3.79964 26.28 4.53564C26.792 5.26364 27.048 6.33564 27.048 7.75164C27.048 8.68764 26.932 9.47964 26.7 10.1276C26.468 10.7756 26.128 11.2676 25.68 11.6036C25.232 11.9396 24.68 12.1076 24.024 12.1076ZM24.024 11.0756C24.64 11.0756 25.092 10.8076 25.38 10.2716C25.676 9.72764 25.824 8.88764 25.824 7.75164C25.824 6.60764 25.676 5.77564 25.38 5.25564C25.092 4.72764 24.64 4.46364 24.024 4.46364C23.416 4.46364 22.964 4.72764 22.668 5.25564C22.372 5.77564 22.224 6.60764 22.224 7.75164C22.224 8.88764 22.372 9.72764 22.668 10.2716C22.964 10.8076 23.416 11.0756 24.024 11.0756Z" fill="white"/>
</svg>
