<svg width="42" height="42" viewBox="0 0 42 42" fill="none" xmlns="http://www.w3.org/2000/svg">
<path d="M6.54708 35.9704C8.64642 38.5 12.5536 38.5 20.3681 38.5H21.6302C29.4447 38.5 33.3519 38.5 35.4512 35.9704M6.54708 35.9704C4.44773 33.4409 5.16778 29.6005 6.60791 21.92C7.63205 16.4579 8.14411 13.7269 10.0882 12.1134M35.4512 35.9704C37.5505 33.4409 36.8305 29.6005 35.3905 21.92C34.3662 16.4579 33.8541 13.7269 31.9101 12.1134M31.9101 12.1134C29.966 10.5 27.1875 10.5 21.6302 10.5H20.3681C14.8109 10.5 12.0323 10.5 10.0882 12.1134" stroke="white" stroke-width="2"/>
<path d="M15.75 10.5V8.75C15.75 5.85051 18.1004 3.5 21 3.5C23.8996 3.5 26.25 5.85051 26.25 8.75V10.5" stroke="white" stroke-width="2" stroke-linecap="round"/>
</svg>
