<svg width="42" height="43" viewBox="0 0 42 43" fill="none" xmlns="http://www.w3.org/2000/svg">
<path d="M6.54708 36.4704C8.64642 39 12.5536 39 20.3681 39H21.6302C29.4447 39 33.3519 39 35.4512 36.4704M6.54708 36.4704C4.44773 33.9409 5.16778 30.1005 6.60791 22.42C7.63205 16.9579 8.14411 14.2269 10.0882 12.6134M35.4512 36.4704C37.5505 33.9409 36.8305 30.1005 35.3905 22.42C34.3662 16.9579 33.8541 14.2269 31.9101 12.6134M31.9101 12.6134C29.966 11 27.1875 11 21.6302 11H20.3681C14.8109 11 12.0323 11 10.0882 12.6134" stroke="#171717" stroke-width="2"/>
<path d="M15.75 11V9.25C15.75 6.35051 18.1004 4 21 4C23.8996 4 26.25 6.35051 26.25 9.25V11" stroke="#171717" stroke-width="2" stroke-linecap="round"/>
</svg>
