<svg width="76" height="76" viewBox="0 0 76 76" fill="none" xmlns="http://www.w3.org/2000/svg">
<path d="M38.0013 75.845C37.6141 75.8442 37.2324 75.7535 36.8862 75.58L1.54125 57.945C1.12482 57.7375 0.774562 57.4179 0.52988 57.0222C0.285197 56.6264 0.155801 56.1703 0.156251 55.705V20.43C0.156731 19.9656 0.286564 19.5105 0.531195 19.1157C0.775826 18.721 1.12558 18.4021 1.54125 18.195L36.8862 0.55502C37.2326 0.382433 37.6143 0.292603 38.0013 0.292603C38.3882 0.292603 38.7699 0.382433 39.1163 0.55502L74.4613 18.195C74.8769 18.4021 75.2267 18.721 75.4713 19.1157C75.7159 19.5105 75.8458 19.9656 75.8463 20.43V55.705C75.8467 56.1703 75.7173 56.6264 75.4726 57.0222C75.2279 57.4179 74.8777 57.7375 74.4613 57.945L39.1163 75.58C38.7701 75.7535 38.3884 75.8442 38.0013 75.845ZM5.15625 54.16L38.0013 70.55L70.8463 54.16V22L38.0013 5.58502L5.15625 22V54.16Z" fill="#171717"/>
<path d="M38.0009 40.5C37.6142 40.5007 37.2325 40.4117 36.8859 40.24L1.54595 22.67C0.949213 22.3749 0.494127 21.8549 0.280804 21.2243C0.0674815 20.5937 0.113397 19.9042 0.408451 19.3075C0.703504 18.7108 1.22352 18.2557 1.85412 18.0423C2.48471 17.829 3.17421 17.8749 3.77095 18.17L38.0009 35.17L72.231 18.17C72.5264 18.0239 72.8478 17.9374 73.1767 17.9155C73.5056 17.8936 73.8355 17.9367 74.1478 18.0423C74.46 18.148 74.7484 18.3141 74.9964 18.5311C75.2445 18.7482 75.4474 19.012 75.5935 19.3075C75.7395 19.603 75.826 19.9243 75.8479 20.2532C75.8698 20.5821 75.8267 20.9121 75.7211 21.2243C75.6155 21.5366 75.4494 21.8249 75.2323 22.073C75.0152 22.321 74.7514 22.5239 74.456 22.67L39.116 40.24C38.7694 40.4117 38.3877 40.5007 38.0009 40.5Z" fill="#171717"/>
<path d="M55.6728 31.715C55.2877 31.715 54.9079 31.626 54.5628 31.455L19.2178 13.885C18.6211 13.59 18.166 13.0699 17.9527 12.4393C17.7394 11.8088 17.7853 11.1192 18.0803 10.5225C18.3754 9.92578 18.8954 9.47069 19.526 9.25737C20.1566 9.04404 20.8461 9.08996 21.4428 9.38501L56.7878 27C57.2935 27.2506 57.6995 27.6649 57.9398 28.1756C58.1801 28.6862 58.2405 29.2631 58.1113 29.8125C57.9821 30.3618 57.6708 30.8513 57.228 31.2013C56.7853 31.5512 56.2372 31.7411 55.6728 31.74V31.715Z" fill="#171717"/>
<path d="M38 75.845C37.337 75.845 36.7011 75.5816 36.2322 75.1128C35.7634 74.6439 35.5 74.008 35.5 73.345V38C35.5 37.337 35.7634 36.7011 36.2322 36.2322C36.7011 35.7634 37.337 35.5 38 35.5C38.663 35.5 39.2989 35.7634 39.7678 36.2322C40.2366 36.7011 40.5 37.337 40.5 38V73.345C40.5 74.008 40.2366 74.6439 39.7678 75.1128C39.2989 75.5816 38.663 75.845 38 75.845Z" fill="#171717"/>
</svg>
