<svg width="100" height="100" viewBox="0 0 100 100" fill="none" xmlns="http://www.w3.org/2000/svg">
<path d="M50.0013 87.8454C49.6141 87.8446 49.2324 87.7539 48.8862 87.5804L13.5413 69.9454C13.1248 69.7379 12.7746 69.4183 12.5299 69.0225C12.2852 68.6268 12.1558 68.1707 12.1563 67.7054V32.4304C12.1567 31.966 12.2866 31.5109 12.5312 31.1161C12.7758 30.7213 13.1256 30.4025 13.5413 30.1954L48.8862 12.5554C49.2326 12.3828 49.6143 12.293 50.0013 12.293C50.3882 12.293 50.7699 12.3828 51.1163 12.5554L86.4613 30.1954C86.8769 30.4025 87.2267 30.7213 87.4713 31.1161C87.7159 31.5109 87.8458 31.966 87.8463 32.4304V67.7054C87.8467 68.1707 87.7173 68.6268 87.4726 69.0225C87.2279 69.4183 86.8777 69.7379 86.4613 69.9454L51.1163 87.5804C50.7701 87.7539 50.3884 87.8446 50.0013 87.8454ZM17.1563 66.1604L50.0013 82.5504L82.8463 66.1604V34.0004L50.0013 17.5854L17.1563 34.0004V66.1604Z" fill="white"/>
<path d="M50.0009 52.5002C49.6142 52.5009 49.2325 52.4119 48.8859 52.2402L13.546 34.6702C12.9492 34.3751 12.4941 33.8551 12.2808 33.2245C12.0675 32.5939 12.1134 31.9044 12.4085 31.3077C12.7035 30.7109 13.2235 30.2558 13.8541 30.0425C14.4847 29.8292 15.1742 29.8751 15.771 30.1702L50.0009 47.1702L84.231 30.1702C84.5264 30.0241 84.8478 29.9376 85.1767 29.9157C85.5056 29.8938 85.8355 29.9369 86.1478 30.0425C86.46 30.1481 86.7484 30.3142 86.9964 30.5313C87.2445 30.7484 87.4474 31.0122 87.5935 31.3077C87.7395 31.6031 87.826 31.9245 87.8479 32.2534C87.8698 32.5823 87.8267 32.9123 87.7211 33.2245C87.6155 33.5367 87.4494 33.8251 87.2323 34.0732C87.0152 34.3212 86.7514 34.5241 86.456 34.6702L51.116 52.2402C50.7694 52.4119 50.3877 52.5009 50.0009 52.5002Z" fill="white"/>
<path d="M67.6728 43.715C67.2877 43.715 66.9079 43.626 66.5628 43.455L31.2178 25.885C30.6211 25.59 30.166 25.0699 29.9527 24.4393C29.7394 23.8088 29.7853 23.1192 30.0803 22.5225C30.3754 21.9258 30.8954 21.4707 31.526 21.2574C32.1566 21.044 32.8461 21.09 33.4428 21.385L68.7878 39C69.2935 39.2506 69.6995 39.6649 69.9398 40.1756C70.1801 40.6862 70.2405 41.2631 70.1113 41.8125C69.9821 42.3618 69.6708 42.8513 69.228 43.2013C68.7853 43.5512 68.2372 43.7411 67.6728 43.74V43.715Z" fill="white"/>
<path d="M50 87.845C49.337 87.845 48.7011 87.5816 48.2322 87.1128C47.7634 86.6439 47.5 86.008 47.5 85.345V50C47.5 49.337 47.7634 48.7011 48.2322 48.2322C48.7011 47.7634 49.337 47.5 50 47.5C50.663 47.5 51.2989 47.7634 51.7678 48.2322C52.2366 48.7011 52.5 49.337 52.5 50V85.345C52.5 86.008 52.2366 86.6439 51.7678 87.1128C51.2989 87.5816 50.663 87.845 50 87.845Z" fill="white"/>
</svg>
