<svg width="399" height="399" viewBox="0 0 399 399" fill="none" xmlns="http://www.w3.org/2000/svg">
<g clip-path="url(#clip0_1572_9832)">
<path d="M39.3574 159.947L84.8994 138.71L167.212 244.577L286.08 189.148L271.017 84.9718L102.099 160.843" stroke="white" stroke-width="12"/>
<path d="M307.624 212.72L179.92 272.27C178.098 273.169 176.113 273.689 174.084 273.8C172.055 273.911 170.025 273.61 168.115 272.915C166.206 272.221 164.457 271.146 162.974 269.757C161.492 268.368 160.306 266.693 159.488 264.833C153.109 251.153 167.213 244.576 167.213 244.576" stroke="white" stroke-width="12"/>
<path d="M215.229 311.611C223.511 307.749 227.094 297.904 223.232 289.622C219.37 281.339 209.525 277.756 201.243 281.618C192.96 285.48 189.377 295.326 193.239 303.608C197.101 311.89 206.946 315.474 215.229 311.611Z" stroke="white" stroke-width="12"/>
<path d="M304.826 269.832C313.109 265.97 316.692 256.124 312.83 247.842C308.968 239.56 299.123 235.976 290.84 239.839C282.558 243.701 278.975 253.546 282.837 261.828C286.699 270.11 296.544 273.694 304.826 269.832Z" stroke="white" stroke-width="12"/>
</g>
<defs>
<clipPath id="clip0_1572_9832">
<rect width="300" height="300" fill="white" transform="translate(0 126.786) rotate(-25)"/>
</clipPath>
</defs>
</svg>
