<svg width="100" height="100" viewBox="0 0 100 100" fill="none" xmlns="http://www.w3.org/2000/svg">
<path d="M92.9688 46.0938V66.2109C92.9688 68.3691 91.2207 70.1172 89.0625 70.1172H61.7188V57.6504V46.0938H92.9688Z" fill="#3BCD92"/>
<path d="M92.9688 38.2812H61.7188V46.0938H92.9688V38.2812Z" fill="#57555C"/>
<path d="M92.9688 34.375V38.2812H61.7188V30.4688H89.0625C91.2207 30.4688 92.9688 32.2168 92.9688 34.375Z" fill="#3BCD92"/>
<path d="M81.25 53.9062C83.4082 53.9062 85.1562 55.6543 85.1562 57.8125C85.1562 59.9707 83.4082 61.7188 81.25 61.7188C79.0918 61.7188 77.3438 59.9707 77.3438 57.8125C77.3438 55.6543 79.0918 53.9062 81.25 53.9062Z" fill="#FED42D"/>
<path d="M73.4375 53.9062C75.5957 53.9062 77.3438 55.6543 77.3438 57.8125C77.3438 59.9707 75.5957 61.7188 73.4375 61.7188C71.2793 61.7188 69.5312 59.9707 69.5312 57.8125C69.5312 55.6543 71.2793 53.9062 73.4375 53.9062Z" fill="#FD728F"/>
<path d="M61.7188 70.1172V90.2344C61.7188 94.5488 58.2207 98.0469 53.9062 98.0469H14.8438C10.5293 98.0469 7.03125 94.5488 7.03125 90.2344V57.6504H61.7188V70.1172Z" fill="#C0E3F0"/>
<path d="M53.9062 10.3516H14.8438C10.5293 10.3516 7.03125 13.8496 7.03125 18.1641V57.6504H61.7188V46.0938V38.2812V30.4688V18.1641C61.7188 13.8496 58.2207 10.3516 53.9062 10.3516Z" fill="#57555C"/>
<path d="M53.9062 81.8359H46.0938V89.6484H53.9062V81.8359Z" fill="#57555C"/>
<path d="M53.9062 66.2109H46.0938V74.0234H53.9062V66.2109Z" fill="#57555C"/>
<path d="M53.9062 30.4688V50H14.8438V30.4688H53.9062Z" fill="#3BCD92"/>
<path d="M50 10.3516V22.6562H18.75V10.3516V1.95312H50V10.3516Z" fill="#C0E3F0"/>
<path d="M38.2812 81.8359H30.4688V89.6484H38.2812V81.8359Z" fill="#57555C"/>
<path d="M38.2812 66.2109H30.4688V74.0234H38.2812V66.2109Z" fill="#57555C"/>
<path d="M22.6562 81.8359H14.8438V89.6484H22.6562V81.8359Z" fill="#57555C"/>
<path d="M22.6562 66.2109H14.8438V74.0234H22.6562V66.2109Z" fill="#57555C"/>
<path d="M22.6562 38.2812C21.5781 38.2812 20.7031 39.1562 20.7031 40.2344C20.7031 41.3125 21.5781 42.1875 22.6562 42.1875C23.7344 42.1875 24.6094 41.3125 24.6094 40.2344C24.6094 39.1562 23.7344 38.2812 22.6562 38.2812Z" fill="black"/>
<path d="M22.6562 64.2578H14.8438C13.765 64.2578 12.8906 65.1324 12.8906 66.2109V74.0234C12.8906 75.102 13.765 75.9766 14.8438 75.9766H22.6562C23.735 75.9766 24.6094 75.102 24.6094 74.0234V66.2109C24.6094 65.1324 23.735 64.2578 22.6562 64.2578ZM20.7031 72.0703H16.7969V68.1641H20.7031V72.0703Z" fill="black"/>
<path d="M22.6562 79.8828H14.8438C13.765 79.8828 12.8906 80.7574 12.8906 81.8359V89.6484C12.8906 90.727 13.765 91.6016 14.8438 91.6016H22.6562C23.735 91.6016 24.6094 90.727 24.6094 89.6484V81.8359C24.6094 80.7574 23.735 79.8828 22.6562 79.8828ZM20.7031 87.6953H16.7969V83.7891H20.7031V87.6953Z" fill="black"/>
<path d="M38.2812 64.2578H30.4688C29.39 64.2578 28.5156 65.1324 28.5156 66.2109V74.0234C28.5156 75.102 29.39 75.9766 30.4688 75.9766H38.2812C39.36 75.9766 40.2344 75.102 40.2344 74.0234V66.2109C40.2344 65.1324 39.36 64.2578 38.2812 64.2578ZM36.3281 72.0703H32.4219V68.1641H36.3281V72.0703Z" fill="black"/>
<path d="M38.2812 79.8828H30.4688C29.39 79.8828 28.5156 80.7574 28.5156 81.8359V89.6484C28.5156 90.727 29.39 91.6016 30.4688 91.6016H38.2812C39.36 91.6016 40.2344 90.727 40.2344 89.6484V81.8359C40.2344 80.7574 39.36 79.8828 38.2812 79.8828ZM36.3281 87.6953H32.4219V83.7891H36.3281V87.6953Z" fill="black"/>
<path d="M53.9062 64.2578H46.0938C45.015 64.2578 44.1406 65.1324 44.1406 66.2109V74.0234C44.1406 75.102 45.015 75.9766 46.0938 75.9766H53.9062C54.9848 75.9766 55.8594 75.102 55.8594 74.0234V66.2109C55.8594 65.1324 54.9848 64.2578 53.9062 64.2578ZM51.9531 72.0703H48.0469V68.1641H51.9531V72.0703Z" fill="black"/>
<path d="M53.9062 79.8828H46.0938C45.015 79.8828 44.1406 80.7574 44.1406 81.8359V89.6484C44.1406 90.727 45.015 91.6016 46.0938 91.6016H53.9062C54.9848 91.6016 55.8594 90.727 55.8594 89.6484V81.8359C55.8594 80.7574 54.9848 79.8828 53.9062 79.8828ZM51.9531 87.6953H48.0469V83.7891H51.9531V87.6953Z" fill="black"/>
<path d="M14.8438 51.9531H53.9062C54.9848 51.9531 55.8594 51.0785 55.8594 50V30.4688C55.8594 29.3902 54.9848 28.5156 53.9062 28.5156H14.8438C13.765 28.5156 12.8906 29.3902 12.8906 30.4688V50C12.8906 51.0785 13.765 51.9531 14.8438 51.9531ZM16.7969 32.4219H51.9531V48.0469H16.7969V32.4219Z" fill="black"/>
<path d="M46.0938 38.2812H30.4688C29.39 38.2812 28.5156 39.1559 28.5156 40.2344C28.5156 41.3129 29.39 42.1875 30.4688 42.1875H46.0938C47.1723 42.1875 48.0469 41.3129 48.0469 40.2344C48.0469 39.1559 47.1723 38.2812 46.0938 38.2812Z" fill="black"/>
<path d="M26.5625 12.3047H42.1875C43.2662 12.3047 44.1406 11.4301 44.1406 10.3516C44.1406 9.27305 43.2662 8.39844 42.1875 8.39844H26.5625C25.4838 8.39844 24.6094 9.27305 24.6094 10.3516C24.6094 11.4301 25.4838 12.3047 26.5625 12.3047Z" fill="black"/>
<path d="M89.0625 28.5156H63.6719V18.1641C63.6719 12.7793 59.291 8.39844 53.9062 8.39844H51.9531V1.95312C51.9531 0.874609 51.0785 0 50 0H18.75C17.6713 0 16.7969 0.874609 16.7969 1.95312V8.39844H14.8438C9.45898 8.39844 5.07812 12.7793 5.07812 18.1641V90.2344C5.07812 95.6191 9.45898 100 14.8438 100H53.9062C59.291 100 63.6719 95.6191 63.6719 90.2344V72.0703H89.0625C92.2934 72.0703 94.9219 69.4418 94.9219 66.2109V34.375C94.9219 31.1441 92.2934 28.5156 89.0625 28.5156ZM63.6719 40.2344H91.0156V44.1406H63.6719V40.2344ZM89.0625 32.4219C90.1395 32.4219 91.0156 33.298 91.0156 34.375V36.3281H63.6719V32.4219H89.0625ZM20.7031 3.90625H48.0469V20.7031H20.7031V3.90625ZM14.8438 12.3047H16.7969V20.7031H14.8438C13.765 20.7031 12.8906 21.5777 12.8906 22.6562C12.8906 23.7348 13.765 24.6094 14.8438 24.6094H18.75H50H53.9062C54.9848 24.6094 55.8594 23.7348 55.8594 22.6562C55.8594 21.5777 54.9848 20.7031 53.9062 20.7031H51.9531V12.3047H53.9062C57.1371 12.3047 59.7656 14.9332 59.7656 18.1641V55.6973H8.98438V18.1641C8.98438 14.9332 11.6129 12.3047 14.8438 12.3047ZM59.7656 90.2344C59.7656 93.4652 57.1371 96.0938 53.9062 96.0938H14.8438C11.6129 96.0938 8.98438 93.4652 8.98438 90.2344V59.6035H59.7656V90.2344ZM89.0625 68.1641H63.6719V48.0469H91.0156V66.2109C91.0156 67.2879 90.1395 68.1641 89.0625 68.1641Z" fill="black"/>
<path d="M81.25 51.9531C79.7504 51.9531 78.3813 52.5199 77.3438 53.45C76.3062 52.5201 74.9371 51.9531 73.4375 51.9531C70.2066 51.9531 67.5781 54.5816 67.5781 57.8125C67.5781 61.0434 70.2066 63.6719 73.4375 63.6719C74.9371 63.6719 76.3062 63.1051 77.3438 62.175C78.3813 63.1049 79.7504 63.6719 81.25 63.6719C84.4809 63.6719 87.1094 61.0434 87.1094 57.8125C87.1094 54.5816 84.4809 51.9531 81.25 51.9531ZM73.4375 59.7656C72.3605 59.7656 71.4844 58.8895 71.4844 57.8125C71.4844 56.7355 72.3605 55.8594 73.4375 55.8594C74.5145 55.8594 75.3906 56.7355 75.3906 57.8125C75.3906 58.8895 74.5145 59.7656 73.4375 59.7656ZM81.25 59.7656C80.173 59.7656 79.2969 58.8895 79.2969 57.8125C79.2969 56.7355 80.173 55.8594 81.25 55.8594C82.327 55.8594 83.2031 56.7355 83.2031 57.8125C83.2031 58.8895 82.327 59.7656 81.25 59.7656Z" fill="black"/>
</svg>
