<svg width="399" height="399" viewBox="0 0 399 399" fill="none" xmlns="http://www.w3.org/2000/svg">
<g clip-path="url(#clip0_1572_9839)">
<path d="M215.025 84.2388L223.849 93.6232C226.561 96.5928 230.208 98.5429 234.184 99.1483L246.51 100.848C250.586 101.486 254.319 103.5 257.09 106.556C259.861 109.612 261.501 113.525 261.738 117.643L262.309 128.186C262.547 132.851 264.594 137.24 268.015 140.421L275.503 147.273C278.49 150.019 280.458 153.696 281.087 157.705C281.717 161.713 280.97 165.816 278.968 169.345L273.412 179.281C271.414 182.843 270.68 186.977 271.33 191.009L273.317 202.703C273.981 206.813 273.198 211.026 271.104 214.624C269.01 218.222 265.733 220.983 261.831 222.437L252.553 225.832C248.202 227.448 244.632 230.667 242.577 234.829L237.309 245.716C235.511 249.449 232.477 252.446 228.722 254.197C224.966 255.948 220.721 256.346 216.705 255.324L206.432 252.925C202.375 251.874 198.078 252.269 194.28 254.04L181.153 260.161C177.45 261.889 173.268 262.302 169.299 261.332C165.329 260.362 161.81 258.067 159.321 254.825L152.329 245.932C149.547 242.356 145.514 239.968 141.041 239.248L130.75 237.478C126.806 236.835 123.187 234.899 120.465 231.973C117.743 229.047 116.072 225.298 115.715 221.318L114.694 209.588C114.332 205.316 112.464 201.311 109.424 198.288L102.072 191.061C99.1462 188.177 97.289 184.383 96.8059 180.303C96.3228 176.223 97.2425 172.101 99.4139 168.613L105.315 159.085C107.632 155.36 108.521 150.922 107.817 146.592L106.09 136.122C105.424 132.009 106.202 127.792 108.292 124.187C110.382 120.582 113.655 117.811 117.556 116.346L126.092 113.244C130.444 111.629 134.013 108.41 136.068 104.248L140.911 94.335C142.712 90.5829 145.758 87.571 149.53 85.812C153.303 84.053 157.568 83.6556 161.6 84.6874L171.386 87.2616C175.913 88.4703 180.733 87.8567 184.812 85.5523L193.012 80.953C196.518 78.953 200.595 78.1897 204.587 78.7856C208.58 79.3815 212.256 81.3021 215.025 84.2388Z" stroke="white" stroke-width="12"/>
<path d="M271.784 215.055L325.71 253.059C327.089 254.02 326.978 255.778 325.822 255.852L282.311 258.039C282.15 258.06 281.996 258.114 281.859 258.2C281.722 258.285 281.604 258.399 281.515 258.534C281.426 258.669 281.366 258.822 281.342 258.982C281.317 259.141 281.326 259.305 281.37 259.46L294.696 299.795C295.016 301.146 293.407 301.689 292.028 300.729L228.349 254.342" stroke="white" stroke-width="12" stroke-linecap="round"/>
<path d="M228.348 254.342L225.664 331.882C225.47 333.575 224.105 334.419 223.253 333.368L199.632 296.799C199.538 296.672 199.418 296.566 199.279 296.488C199.141 296.41 198.988 296.363 198.829 296.349C198.671 296.334 198.512 296.354 198.362 296.406C198.212 296.457 198.075 296.54 197.959 296.649L169.552 328.566C168.521 329.461 167.25 328.399 167.423 326.663L173.052 261.093" stroke="white" stroke-width="12" stroke-linecap="round"/>
<path d="M172.55 133.681L194.896 151.655C194.959 151.7 195.032 151.728 195.109 151.737C195.185 151.747 195.263 151.737 195.335 151.709L222.568 143.562C222.908 143.403 223.316 143.834 223.16 144.165L213.011 170.982C213.005 171.056 213.018 171.13 213.049 171.197C213.08 171.264 213.129 171.322 213.189 171.365L229.324 194.873C229.375 194.943 229.405 195.026 229.412 195.112C229.419 195.198 229.402 195.284 229.363 195.361C229.324 195.438 229.265 195.503 229.191 195.548C229.118 195.594 229.033 195.618 228.947 195.618L200.275 194.248C200.201 194.228 200.121 194.235 200.052 194.267C199.982 194.3 199.925 194.356 199.893 194.426L182.867 217.364C182.807 217.427 182.732 217.474 182.649 217.501C182.566 217.527 182.478 217.532 182.392 217.515C182.307 217.498 182.227 217.46 182.161 217.403C182.094 217.347 182.043 217.275 182.012 217.194L174.374 189.723C174.376 189.65 174.361 189.577 174.33 189.511C174.299 189.444 174.253 189.386 174.196 189.341L147.086 179.897C147.014 179.856 146.953 179.799 146.908 179.729C146.862 179.66 146.834 179.581 146.826 179.498C146.818 179.415 146.83 179.332 146.861 179.255C146.892 179.178 146.942 179.11 147.005 179.056L170.964 163.332C171.034 163.299 171.094 163.247 171.136 163.181C171.179 163.116 171.203 163.04 171.204 162.962L171.842 134.27C171.789 134.174 171.771 134.063 171.791 133.956C171.811 133.849 171.868 133.752 171.952 133.682C172.036 133.613 172.141 133.574 172.251 133.574C172.36 133.574 172.465 133.611 172.55 133.681Z" stroke="white" stroke-width="12" stroke-linecap="round"/>
</g>
<defs>
<clipPath id="clip0_1572_9839">
<rect width="300" height="300" fill="white" transform="translate(0 126.786) rotate(-25)"/>
</clipPath>
</defs>
</svg>
