<svg width="24" height="24" viewBox="0 0 24 24" fill="none" xmlns="http://www.w3.org/2000/svg">
<path fill-rule="evenodd" clip-rule="evenodd" d="M19.2076 6.20698C19.3897 6.01838 19.4905 5.76578 19.4882 5.50358C19.486 5.24138 19.3808 4.99057 19.1954 4.80516C19.01 4.61975 18.7592 4.51458 18.497 4.51231C18.2348 4.51003 17.9822 4.61082 17.7936 4.79298L12.0006 10.586L6.20757 4.79298C6.01897 4.61082 5.76636 4.51003 5.50417 4.51231C5.24197 4.51458 4.99116 4.61975 4.80575 4.80516C4.62034 4.99057 4.51517 5.24138 4.5129 5.50358C4.51062 5.76578 4.61141 6.01838 4.79357 6.20698L10.5866 12L4.79357 17.793C4.69806 17.8852 4.62188 17.9956 4.56947 18.1176C4.51706 18.2396 4.48947 18.3708 4.48832 18.5036C4.48717 18.6364 4.51247 18.768 4.56275 18.8909C4.61303 19.0138 4.68728 19.1255 4.78117 19.2194C4.87507 19.3133 4.98672 19.3875 5.10962 19.4378C5.23251 19.4881 5.36419 19.5134 5.49697 19.5122C5.62975 19.5111 5.76097 19.4835 5.88297 19.4311C6.00498 19.3787 6.11532 19.3025 6.20757 19.207L12.0006 13.414L17.7936 19.207C17.9822 19.3891 18.2348 19.4899 18.497 19.4877C18.7592 19.4854 19.01 19.3802 19.1954 19.1948C19.3808 19.0094 19.486 18.7586 19.4882 18.4964C19.4905 18.2342 19.3897 17.9816 19.2076 17.793L13.4146 12L19.2076 6.20698Z" />
</svg>
