<svg width="471" height="301" viewBox="0 0 471 301" fill="none" xmlns="http://www.w3.org/2000/svg">
<path d="M230.733 110.036C229.033 110.979 227.741 112.551 227.162 114.429L210.096 167.419L177.423 157.007C168.135 153.82 163.375 168.574 172.792 171.358L212.67 184.079C216.636 185.349 220.888 183.16 222.171 179.189L241.539 119.013C243.735 112.504 236.779 106.924 230.746 110.03L230.733 110.036ZM59.0388 265.643L98.9023 245.125C102.583 243.23 107.071 244.668 108.966 248.349C110.861 252.03 109.423 256.518 105.742 258.413L65.8783 278.931C62.1975 280.826 57.7091 279.388 55.8146 275.707C53.9201 272.026 55.358 267.538 59.0388 265.643ZM31.6808 212.492L71.5444 191.973C75.2251 190.079 79.7135 191.517 81.608 195.198C83.5026 198.878 82.0646 203.367 78.3839 205.261L38.5203 225.78C34.8396 227.674 30.3512 226.236 28.4567 222.556C26.5621 218.875 28.0001 214.386 31.6808 212.492ZM4.3229 159.341L44.1864 138.822C47.8672 136.928 52.3556 138.366 54.2501 142.046C56.1446 145.727 54.7067 150.215 51.0259 152.11L11.1624 172.628C7.48165 174.523 2.99325 173.085 1.09871 169.404C-0.795822 165.723 0.642161 161.235 4.3229 159.341ZM398.466 141.359C380.195 150.763 372.94 173.407 382.345 191.678C391.749 209.948 414.392 217.203 432.663 207.798C450.934 198.394 458.188 175.751 448.784 157.48C439.38 139.209 416.736 131.955 398.466 141.359ZM405.305 154.647C416.387 148.943 429.792 153.238 435.496 164.32C441.2 175.402 436.906 188.806 425.824 194.511C414.741 200.215 401.337 195.92 395.633 184.838C389.928 173.756 394.223 160.351 405.305 154.647ZM225.724 230.272C207.453 239.677 200.198 262.32 209.603 280.591C219.007 298.862 241.65 306.116 259.921 296.712C278.192 287.307 285.446 264.664 276.042 246.393C266.638 228.123 243.994 220.868 225.724 230.272ZM232.563 243.56C243.645 237.856 257.05 242.151 262.754 253.233C268.458 264.315 264.164 277.72 253.081 283.424C241.999 289.128 228.595 284.833 222.891 273.751C217.186 262.669 221.481 249.264 232.563 243.56ZM70.371 91.7279C59.4484 97.35 55.0764 110.996 60.6985 121.919L135.933 268.085C141.555 279.008 155.201 283.38 166.124 277.758L192.699 264.079C201.75 259.588 194.774 246.035 185.86 250.791L159.284 264.47C155.484 266.426 151.177 265.046 149.221 261.246L73.9863 115.079C72.0302 111.279 73.4102 106.972 77.2105 105.016L249.952 16.1024C253.753 14.1463 258.06 15.5263 260.016 19.3266L338.67 172.137L265.587 209.754C256.817 214.268 263.884 227.607 272.427 223.042L365.442 175.165C374.211 170.651 367.292 157.405 358.602 161.878L351.958 165.297L290.403 45.7068L346.57 16.7962L437.031 69.336L454.841 103.938C456.797 107.738 455.417 112.045 451.617 114.001L438.329 120.841C429.639 125.314 436.478 138.602 445.169 134.129L458.456 127.289C469.379 121.667 473.751 108.021 468.129 97.0981L449.32 60.5565C448.671 59.2942 447.662 58.2165 446.437 57.5022L350.539 1.81116C348.339 0.540224 345.644 0.464825 343.359 1.64122L283.563 32.4189L273.304 12.4871C267.682 1.56453 254.036 -2.80746 243.113 2.8146L70.371 91.7279Z" fill="white"/>
</svg>
