<svg width="399" height="399" viewBox="0 0 399 399" fill="none" xmlns="http://www.w3.org/2000/svg">
<g clip-path="url(#clip0_1572_9825)">
<path d="M229.558 99.5459L239.749 110.31C242.928 113.712 247.158 115.947 251.76 116.657L265.876 118.867C270.614 119.606 274.955 121.948 278.174 125.501C281.394 129.054 283.297 133.604 283.566 138.392L284.132 150.696C284.411 156.122 286.791 161.227 290.768 164.928L299.712 173.016C303.164 176.22 305.436 180.494 306.162 185.148C306.887 189.802 306.023 194.565 303.708 198.667L297.441 210.072C295.099 214.196 294.235 218.997 294.993 223.678L297.178 237.348C297.955 242.143 297.039 247.058 294.586 251.25C292.133 255.442 288.297 258.65 283.737 260.322L273.018 264.286C267.943 266.158 263.804 269.945 261.489 274.834L255.292 287.499C253.192 291.843 249.656 295.329 245.283 297.368C240.91 299.408 235.967 299.875 231.289 298.692L219.544 295.686C214.844 294.5 209.877 294.987 205.497 297.064L190.373 304.117C186.087 306.129 181.244 306.623 176.64 305.518C172.036 304.412 167.944 301.773 165.039 298.035L156.931 287.747C153.727 283.441 148.983 280.538 143.689 279.647L131.522 277.511C126.928 276.78 122.71 274.534 119.539 271.13C116.368 267.726 114.426 263.36 114.021 258.725L112.841 245.104C112.438 240.136 110.266 235.478 106.72 231.977L98.1419 223.564C94.7782 220.228 92.647 215.849 92.0973 211.144C91.5477 206.439 92.6123 201.687 95.1167 197.666L102.154 186.471C104.873 182.138 105.917 176.961 105.089 171.913L103.071 159.821C102.275 155.002 103.187 150.057 105.649 145.84C108.112 141.623 111.97 138.398 116.557 136.723L126.45 133.092C131.526 131.195 135.672 127.408 138.021 122.525L143.663 110.998C145.766 106.635 149.314 103.133 153.704 101.086C158.094 99.0392 163.056 98.5726 167.751 99.7656L178.743 102.708C184.009 104.074 189.599 103.323 194.319 100.617L203.965 95.2397C208.095 92.9776 212.866 92.1723 217.509 92.9535C222.152 93.7348 226.396 96.0571 229.558 99.5459Z" stroke="white" stroke-width="12"/>
<path d="M167.496 192.723C176.342 188.598 180.168 178.084 176.044 169.238C171.919 160.393 161.405 156.566 152.559 160.691C143.714 164.815 139.887 175.33 144.011 184.175C148.136 193.021 158.651 196.848 167.496 192.723Z" stroke="white" stroke-width="12"/>
<path d="M247.732 237.235C256.578 233.11 260.405 222.596 256.28 213.75C252.155 204.905 241.641 201.078 232.795 205.202C223.95 209.327 220.123 219.842 224.248 228.687C228.372 237.533 238.887 241.359 247.732 237.235Z" stroke="white" stroke-width="12"/>
<path d="M221.157 138.427L176.148 262.185" stroke="white" stroke-width="12"/>
</g>
<defs>
<clipPath id="clip0_1572_9825">
<rect width="300" height="300" fill="white" transform="translate(0 126.786) rotate(-25)"/>
</clipPath>
</defs>
</svg>
