<svg width="100" height="64" viewBox="0 0 100 64" fill="none" xmlns="http://www.w3.org/2000/svg">
<g clip-path="url(#clip0_2022_1586)">
<path d="M51.6 22.3643C51.1667 22.3776 50.75 22.5575 50.4433 22.8708L41.65 31.6344L36.2333 26.2363C34.7167 24.6568 32.2667 27.096 33.85 28.6088L40.46 35.1999C41.1167 35.8563 42.1833 35.8563 42.8433 35.1999L52.8267 25.2466C53.9267 24.1803 53.1167 22.3643 51.6033 22.3643H51.6ZM1.66667 35.693H11.6667C12.59 35.693 13.3333 36.4361 13.3333 37.3591C13.3333 38.2821 12.59 39.0252 11.6667 39.0252H1.66667C0.743333 39.0252 0 38.2821 0 37.3591C0 36.4361 0.743333 35.693 1.66667 35.693ZM1.66667 22.3643H11.6667C12.59 22.3643 13.3333 23.1073 13.3333 24.0304C13.3333 24.9534 12.59 25.6964 11.6667 25.6964H1.66667C0.743333 25.6964 0 24.9534 0 24.0304C0 23.1073 0.743333 22.3643 1.66667 22.3643ZM1.66667 9.03548H11.6667C12.59 9.03548 13.3333 9.77856 13.3333 10.7016C13.3333 11.6246 12.59 12.3677 11.6667 12.3677H1.66667C0.743333 12.3677 0 11.6246 0 10.7016C0 9.77856 0.743333 9.03548 1.66667 9.03548ZM81.6667 45.6896C77.0833 45.6896 73.3333 49.4383 73.3333 54.0201C73.3333 58.6019 77.0833 62.3506 81.6667 62.3506C86.25 62.3506 90 58.6019 90 54.0201C90 49.4383 86.25 45.6896 81.6667 45.6896ZM81.6667 49.0218C84.4467 49.0218 86.6667 51.241 86.6667 54.0201C86.6667 56.7991 84.4467 59.0184 81.6667 59.0184C78.8867 59.0184 76.6667 56.7991 76.6667 54.0201C76.6667 51.241 78.8867 49.0218 81.6667 49.0218ZM38.3333 45.6896C33.75 45.6896 30 49.4383 30 54.0201C30 58.6019 33.75 62.3506 38.3333 62.3506C42.9167 62.3506 46.6667 58.6019 46.6667 54.0201C46.6667 49.4383 42.9167 45.6896 38.3333 45.6896ZM38.3333 49.0218C41.1133 49.0218 43.3333 51.241 43.3333 54.0201C43.3333 56.7991 41.1133 59.0184 38.3333 59.0184C35.5533 59.0184 33.3333 56.7991 33.3333 54.0201C33.3333 51.241 35.5533 49.0218 38.3333 49.0218ZM21.6667 2.37109C18.9267 2.37109 16.6667 4.63032 16.6667 7.36938L16.6667 44.0235C16.6667 46.7626 18.9267 49.0218 21.6667 49.0218H28.3333C30.5867 49.0551 30.5867 45.6563 28.3333 45.6896H21.6667C20.7133 45.6896 20 44.9765 20 44.0235L20 7.36938C20 6.41638 20.7133 5.70329 21.6667 5.70329L65 5.70329C65.9533 5.70329 66.6667 6.41638 66.6667 7.36938V45.6896L48.3333 45.6896C46.1333 45.6896 46.1733 49.0551 48.3333 49.0218L71.6667 49.0218C73.8667 49.0218 73.8467 45.6896 71.6667 45.6896H70V15.6999L84.09 15.6999L96.6667 35.3465V44.0235C96.6667 44.9765 95.9533 45.6896 95 45.6896H91.6667C89.4867 45.6896 89.4867 49.0218 91.6667 49.0218H95C97.74 49.0218 100 46.7626 100 44.0235V34.86C100 34.5434 99.91 34.2269 99.74 33.9603L86.4067 13.1341C86.1 12.6576 85.5733 12.3677 85 12.3677L70 12.3677V7.36938C70 4.63032 67.74 2.37109 65 2.37109L21.6667 2.37109Z" fill="white"/>
</g>
<defs>
<clipPath id="clip0_2022_1586">
<rect width="100" height="63.8037" fill="white"/>
</clipPath>
</defs>
</svg>
