<svg width="399" height="399" viewBox="0 0 399 399" fill="none" xmlns="http://www.w3.org/2000/svg">
<g clip-path="url(#clip0_1572_9815)">
<path d="M175.743 263.201L241.55 232.515C243.443 231.632 244.907 230.034 245.622 228.071C246.336 226.109 246.241 223.943 245.359 222.05L227.778 119.462C227.338 118.517 226.714 117.67 225.944 116.968C225.173 116.266 224.271 115.724 223.29 115.374C222.309 115.023 221.268 114.871 220.227 114.925C219.186 114.98 218.167 115.241 217.228 115.692L109.363 165.991C107.466 166.875 105.996 168.474 105.275 170.439C104.553 172.403 104.638 174.574 105.511 176.476L126.703 277.38C127.586 279.273 129.184 280.737 131.147 281.452C133.11 282.166 135.276 282.072 137.169 281.189L146.43 276.87" stroke="white" stroke-width="12"/>
<path d="M260.624 223.62L245.883 230.494L232.872 147.136L267.794 130.852C268.318 130.606 268.89 130.477 269.47 130.475C270.05 130.473 270.623 130.597 271.149 130.839L298.839 150.511C299.675 150.881 300.349 151.54 300.738 152.366L306.719 202.126L291.425 209.258" stroke="white" stroke-width="12"/>
<path d="M171.034 290.482C179.738 286.422 183.46 275.98 179.346 267.158C175.232 258.336 164.841 254.475 156.136 258.534C147.432 262.593 143.71 273.035 147.824 281.857C151.937 290.679 162.329 294.541 171.034 290.482Z" stroke="white" stroke-width="12"/>
<path d="M285.909 236.915C294.613 232.856 298.335 222.413 294.221 213.591C290.107 204.769 279.716 200.908 271.011 204.967C262.307 209.026 258.585 219.469 262.699 228.291C266.812 237.113 277.204 240.974 285.909 236.915Z" stroke="white" stroke-width="12"/>
<path d="M143.07 175.719L73.4824 208.168" stroke="white" stroke-width="12" stroke-linecap="round"/>
<path d="M139.727 204.379L90.5742 227.3" stroke="white" stroke-width="12" stroke-linecap="round"/>
<path d="M156.387 227.126L80.002 262.745" stroke="white" stroke-width="12" stroke-linecap="round"/>
</g>
<defs>
<clipPath id="clip0_1572_9815">
<rect width="300" height="300" fill="white" transform="translate(0 126.786) rotate(-25)"/>
</clipPath>
</defs>
</svg>
