<svg width="100" height="64" viewBox="0 0 100 64" fill="none" xmlns="http://www.w3.org/2000/svg">
<g clip-path="url(#clip0_1654_10374)">
<path d="M51.6 22.3645C51.1667 22.3778 50.75 22.5577 50.4433 22.871L41.65 31.6346L36.2333 26.2365C34.7167 24.657 32.2667 27.0962 33.85 28.609L40.46 35.2001C41.1167 35.8565 42.1833 35.8565 42.8433 35.2001L52.8267 25.2468C53.9267 24.1805 53.1167 22.3645 51.6033 22.3645H51.6ZM1.66667 35.6932H11.6667C12.59 35.6932 13.3333 36.4363 13.3333 37.3593C13.3333 38.2824 12.59 39.0254 11.6667 39.0254H1.66667C0.743333 39.0254 0 38.2824 0 37.3593C0 36.4363 0.743333 35.6932 1.66667 35.6932ZM1.66667 22.3645H11.6667C12.59 22.3645 13.3333 23.1075 13.3333 24.0306C13.3333 24.9536 12.59 25.6967 11.6667 25.6967H1.66667C0.743333 25.6967 0 24.9536 0 24.0306C0 23.1075 0.743333 22.3645 1.66667 22.3645ZM1.66667 9.03569H11.6667C12.59 9.03569 13.3333 9.77877 13.3333 10.7018C13.3333 11.6248 12.59 12.3679 11.6667 12.3679H1.66667C0.743333 12.3679 0 11.6248 0 10.7018C0 9.77877 0.743333 9.03569 1.66667 9.03569ZM81.6667 45.6898C77.0833 45.6898 73.3333 49.4385 73.3333 54.0203C73.3333 58.6021 77.0833 62.3508 81.6667 62.3508C86.25 62.3508 90 58.6021 90 54.0203C90 49.4385 86.25 45.6898 81.6667 45.6898ZM81.6667 49.022C84.4467 49.022 86.6667 51.2413 86.6667 54.0203C86.6667 56.7994 84.4467 59.0186 81.6667 59.0186C78.8867 59.0186 76.6667 56.7994 76.6667 54.0203C76.6667 51.2413 78.8867 49.022 81.6667 49.022ZM38.3333 45.6898C33.75 45.6898 30 49.4385 30 54.0203C30 58.6021 33.75 62.3508 38.3333 62.3508C42.9167 62.3508 46.6667 58.6021 46.6667 54.0203C46.6667 49.4385 42.9167 45.6898 38.3333 45.6898ZM38.3333 49.022C41.1133 49.022 43.3333 51.2413 43.3333 54.0203C43.3333 56.7994 41.1133 59.0186 38.3333 59.0186C35.5533 59.0186 33.3333 56.7994 33.3333 54.0203C33.3333 51.2413 35.5533 49.022 38.3333 49.022ZM21.6667 2.37131C18.9267 2.37131 16.6667 4.63053 16.6667 7.3696L16.6667 44.0237C16.6667 46.7628 18.9267 49.022 21.6667 49.022H28.3333C30.5867 49.0553 30.5867 45.6565 28.3333 45.6898H21.6667C20.7133 45.6898 20 44.9767 20 44.0237L20 7.3696C20 6.41659 20.7133 5.7035 21.6667 5.7035L65 5.7035C65.9533 5.7035 66.6667 6.41659 66.6667 7.3696V45.6898L48.3333 45.6898C46.1333 45.6898 46.1733 49.0553 48.3333 49.022L71.6667 49.022C73.8667 49.022 73.8467 45.6898 71.6667 45.6898H70V15.7001L84.09 15.7001L96.6667 35.3467V44.0237C96.6667 44.9767 95.9533 45.6898 95 45.6898H91.6667C89.4867 45.6898 89.4867 49.022 91.6667 49.022H95C97.74 49.022 100 46.7628 100 44.0237V34.8602C100 34.5436 99.91 34.2271 99.74 33.9605L86.4067 13.1343C86.1 12.6578 85.5733 12.3679 85 12.3679L70 12.3679V7.3696C70 4.63053 67.74 2.37131 65 2.37131L21.6667 2.37131Z" fill="#171717"/>
</g>
<defs>
<clipPath id="clip0_1654_10374">
<rect width="100" height="63.8037" fill="white"/>
</clipPath>
</defs>
</svg>
