<svg width="24" height="24" viewBox="0 0 24 24" fill="none" xmlns="http://www.w3.org/2000/svg">
<path d="M20.6206 3.17C20.4614 2.82097 20.2052 2.52509 19.8825 2.31764C19.5598 2.11019 19.1842 1.99993 18.8006 2H5.2006C4.81624 2.00049 4.44017 2.11171 4.11738 2.32037C3.7946 2.52902 3.53877 2.82627 3.38052 3.17653C3.22227 3.52679 3.16829 3.91524 3.22506 4.29538C3.28182 4.67552 3.44692 5.03125 3.7006 5.32L9.0006 11.38V21C9.00026 21.1699 9.04323 21.3372 9.12547 21.4859C9.2077 21.6346 9.32648 21.7599 9.4706 21.85C9.62974 21.9486 9.81337 22.0006 10.0006 22C10.1571 21.9991 10.3113 21.9614 10.4506 21.89L14.4506 19.89C14.6155 19.8069 14.7542 19.6798 14.8513 19.5227C14.9484 19.3656 15 19.1847 15.0006 19V11.38L20.3006 5.32C20.5555 5.03063 20.7214 4.67373 20.7782 4.29227C20.835 3.91081 20.7802 3.52107 20.6206 3.17Z" fill="white"/>
</svg>
