<svg width="56" height="56" viewBox="0 0 56 56" fill="none" xmlns="http://www.w3.org/2000/svg">
<path d="M35 28C35 29.3845 34.5895 30.7378 33.8203 31.889C33.0511 33.0401 31.9579 33.9373 30.6788 34.4672C29.3997 34.997 27.9922 35.1356 26.6344 34.8655C25.2765 34.5954 24.0292 33.9287 23.0503 32.9497C22.0713 31.9708 21.4046 30.7235 21.1345 29.3656C20.8644 28.0078 21.003 26.6003 21.5328 25.3212C22.0627 24.0421 22.9599 22.9489 24.111 22.1797C25.2622 21.4105 26.6155 21 28 21C29.8559 21.0021 31.6351 21.7403 32.9474 23.0526C34.2597 24.3649 34.9979 26.1441 35 28ZM49.875 18.375V37.625C49.8713 40.8728 48.5795 43.9865 46.283 46.283C43.9865 48.5795 40.8728 49.8713 37.625 49.875H18.375C15.1272 49.8713 12.0135 48.5795 9.717 46.283C7.42048 43.9865 6.12868 40.8728 6.125 37.625V18.375C6.12868 15.1272 7.42048 12.0135 9.717 9.717C12.0135 7.42048 15.1272 6.12868 18.375 6.125H37.625C40.8728 6.12868 43.9865 7.42048 46.283 9.717C48.5795 12.0135 49.8713 15.1272 49.875 18.375ZM38.5 28C38.5 25.9233 37.8842 23.8932 36.7304 22.1665C35.5767 20.4398 33.9368 19.094 32.0182 18.2993C30.0996 17.5045 27.9884 17.2966 25.9516 17.7018C23.9148 18.1069 22.0438 19.1069 20.5754 20.5754C19.1069 22.0438 18.1069 23.9148 17.7018 25.9516C17.2966 27.9884 17.5045 30.0996 18.2993 32.0182C19.094 33.9368 20.4398 35.5767 22.1665 36.7304C23.8932 37.8842 25.9233 38.5 28 38.5C30.7838 38.4969 33.4527 37.3896 35.4211 35.4211C37.3896 33.4527 38.4969 30.7838 38.5 28ZM42 16.625C42 16.1058 41.846 15.5983 41.5576 15.1666C41.2692 14.735 40.8592 14.3985 40.3795 14.1998C39.8999 14.0011 39.3721 13.9492 38.8629 14.0504C38.3537 14.1517 37.886 14.4017 37.5188 14.7688C37.1517 15.136 36.9017 15.6037 36.8004 16.1129C36.6992 16.6221 36.7511 17.1499 36.9498 17.6295C37.1485 18.1092 37.4849 18.5192 37.9166 18.8076C38.3483 19.096 38.8558 19.25 39.375 19.25C40.0712 19.25 40.7389 18.9734 41.2312 18.4812C41.7234 17.9889 42 17.3212 42 16.625Z" fill="white"/>
</svg>
