<svg width="24" height="24" viewBox="0 0 24 24" fill="none" xmlns="http://www.w3.org/2000/svg">
<path d="M3.70898 10.2608C3.70898 5.89588 7.43994 2.35742 12.0423 2.35742C16.6447 2.35742 20.3757 5.89588 20.3757 10.2608C20.3757 14.5915 17.7159 19.645 13.5662 21.4522C12.5988 21.8735 11.4858 21.8735 10.5184 21.4522C6.36869 19.645 3.70898 14.5915 3.70898 10.2608Z" stroke="white" stroke-width="1.5"/>
<path d="M12.0414 13.4492C13.5756 13.4492 14.8192 12.2077 14.8192 10.6763C14.8192 9.14482 13.5756 7.90332 12.0414 7.90332C10.5073 7.90332 9.26367 9.14482 9.26367 10.6763C9.26367 12.2077 10.5073 13.4492 12.0414 13.4492Z" stroke="white" stroke-width="1.5"/>
</svg>
