<svg width="24" height="24" viewBox="0 0 24 24" fill="none" xmlns="http://www.w3.org/2000/svg">
<path d="M3.70898 10.2604C3.70898 5.89545 7.43994 2.35699 12.0423 2.35699C16.6447 2.35699 20.3757 5.89545 20.3757 10.2604C20.3757 14.591 17.7159 19.6446 13.5662 21.4518C12.5988 21.8731 11.4858 21.8731 10.5184 21.4518C6.36869 19.6446 3.70898 14.591 3.70898 10.2604Z" stroke="#171717" stroke-width="1.5"/>
<path d="M12.0414 13.4489C13.5756 13.4489 14.8192 12.2074 14.8192 10.6759C14.8192 9.14445 13.5756 7.90295 12.0414 7.90295C10.5073 7.90295 9.26367 9.14445 9.26367 10.6759C9.26367 12.2074 10.5073 13.4489 12.0414 13.4489Z" stroke="#171717" stroke-width="1.5"/>
</svg>
