<svg width="242" height="52" viewBox="0 0 242 52" fill="none" xmlns="http://www.w3.org/2000/svg">
<path d="M25.4265 15.4735C25.4265 21.1935 17.7336 21.1935 17.7336 21.1935H9.90966V9.29895H17.7336C17.7336 9.29895 25.4265 9.23125 25.4265 15.4735ZM35.4041 14.8884C35.4041 -0.385914 17.7336 0.000898926 17.7336 0.000898926H0.71788C0.324987 0.000898926 0 0.32969 0 0.585956V30.8735H17.7336C17.7336 30.8735 26.1444 30.4867 26.1444 36.5935C26.1444 41.5979 20.9931 42.5069 17.7336 42.5069H9.97756V51.9984H17.7336C21.2551 51.9984 36.122 51.3505 36.122 36.8546C36.122 36.8546 36.447 28.7944 28.1671 25.9997C32.1445 24.375 35.4041 20.9324 35.4041 14.8884Z" fill="black"/>
<path d="M86.0559 51.221L66.2317 0.393638C66.0377 -0.123726 65.1258 -0.123726 64.9269 0.393638L45.1707 51.221C44.9766 51.6078 45.2386 51.9995 45.8255 51.9995H54.7553C55.0173 51.9995 55.3423 51.8689 55.4102 51.6078L65.5817 22.621L75.8843 51.6078C75.9474 51.8689 76.2723 51.9995 76.4712 51.9995H85.469C85.9249 51.9995 86.2499 51.6078 86.0559 51.221Z" fill="black"/>
<path d="M123.485 42.3142H95.3184V51.414C95.3184 51.6751 95.6433 51.9991 96.0362 51.9991H123.485C123.941 51.9991 124.203 51.6751 124.203 51.414V42.967C124.203 42.6382 123.941 42.3142 123.485 42.3142ZM105.296 32.3731V0.586643C105.296 0.330378 105.034 0.00158691 104.641 0.00158691H96.0362C95.6433 0.00158691 95.3184 0.330378 95.3184 0.586643V32.3731H105.296Z" fill="black"/>
<path d="M179.543 39.4582H189.457V0.58823C189.457 0.331965 189.196 0.00317383 188.74 0.00317383H180.13C179.873 0.00317383 179.543 0.201416 179.417 0.394823L161.615 38.4815L142.902 0.394823C142.839 0.201416 142.446 0.00317383 142.252 0.00317383H133.511C133.055 0.00317383 132.861 0.331965 132.861 0.58823V51.4156C132.861 51.6767 133.055 52.0007 133.511 52.0007H142.121C142.509 52.0007 142.839 51.6767 142.839 51.4156V22.2353L156.988 49.5299C157.051 49.7281 157.444 49.9215 157.638 49.9215H165.656C165.855 49.9215 166.18 49.7281 166.243 49.5299L179.543 22.9461V39.4582Z" fill="black"/>
<path d="M229.097 9.94913L223.621 17.5549L211.233 0.201416C211.102 0.070866 210.772 0.00317383 210.578 0.00317383H200.275C199.557 0.00317383 199.3 0.525372 199.625 0.97988C205.95 9.81858 212.406 18.6573 218.664 27.5637V51.4156C218.664 51.6767 218.925 52.0007 219.381 52.0007H227.923C228.311 52.0007 228.641 51.6767 228.641 51.4156V27.5637L241.223 9.94913H229.097Z" fill="black"/>
</svg>
