<svg width="86" height="19" viewBox="0 0 86 19" fill="none" xmlns="http://www.w3.org/2000/svg">
<path d="M9.0648 5.65364C9.0648 7.74359 6.32219 7.74359 6.32219 7.74359H3.53289V3.39761H6.32219C6.32219 3.39761 9.0648 3.37288 9.0648 5.65364ZM12.6219 5.43987C12.6219 -0.141004 6.32219 0.000328446 6.32219 0.000328446H0.255931C0.115861 0.000328446 0 0.120461 0 0.214094V11.2804H6.32219C6.32219 11.2804 9.32073 11.1391 9.32073 13.3704C9.32073 15.1989 7.48425 15.531 6.32219 15.531H3.55709V18.999H6.32219C7.57763 18.999 12.8778 18.7622 12.8778 13.4658C12.8778 13.4658 12.9937 10.5208 10.0418 9.49965C11.4598 8.90605 12.6219 7.64819 12.6219 5.43987Z" fill="black"/>
<path d="M30.6903 18.7149L23.6228 0.143789C23.5536 -0.045244 23.2285 -0.045244 23.1576 0.143789L16.1143 18.7149C16.0452 18.8562 16.1386 18.9993 16.3478 18.9993H19.5314C19.6247 18.9993 19.7406 18.9516 19.7648 18.8562L23.3911 8.26512L27.064 18.8562C27.0865 18.9516 27.2024 18.9993 27.2733 18.9993H30.4811C30.6436 18.9993 30.7595 18.8562 30.6903 18.7149Z" fill="black"/>
<path d="M44.0282 15.462H33.9863V18.7868C33.9863 18.8822 34.1022 19.0006 34.2423 19.0006H44.0282C44.1907 19.0006 44.2841 18.8822 44.2841 18.7868V15.7005C44.2841 15.5803 44.1907 15.462 44.0282 15.462ZM37.5434 11.8297V0.215719C37.5434 0.122086 37.45 0.00195312 37.31 0.00195312H34.2423C34.1022 0.00195312 33.9863 0.122086 33.9863 0.215719V11.8297H37.5434Z" fill="black"/>
<path d="M63.9999 14.4159H67.5345V0.213766C67.5345 0.120132 67.4411 0 67.2785 0H64.2091C64.1174 0 63.9999 0.072433 63.9549 0.143099L57.6085 14.0591L50.937 0.143099C50.9145 0.072433 50.7744 0 50.7053 0H47.5891C47.4266 0 47.3574 0.120132 47.3574 0.213766V18.7849C47.3574 18.8803 47.4266 18.9986 47.5891 18.9986H50.6586C50.7969 18.9986 50.9145 18.8803 50.9145 18.7849V8.1231L55.9588 18.0959C55.9813 18.1683 56.1213 18.239 56.1905 18.239H59.049C59.1199 18.239 59.2357 18.1683 59.2582 18.0959L63.9999 8.38279V14.4159Z" fill="black"/>
<path d="M81.6756 3.63499L79.7233 6.41395L75.3068 0.0734096C75.2601 0.0257097 75.1425 0.000976562 75.0733 0.000976562H71.4004C71.1444 0.000976562 71.0528 0.191775 71.1686 0.357842C73.4236 3.58729 75.7253 6.81674 77.956 10.0709V18.7859C77.956 18.8813 78.0494 18.9996 78.2119 18.9996H81.2572C81.3955 18.9996 81.5131 18.8813 81.5131 18.7859V10.0709L85.9988 3.63499H81.6756Z" fill="black"/>
</svg>
