
<svg width="167" height="36" viewBox="0 0 167 36" fill="none" xmlns="http://www.w3.org/2000/svg">
<path d="M17.603 10.7124C17.603 14.6724 12.2771 14.6724 12.2771 14.6724H6.86053V6.43773H12.2771C12.2771 6.43773 17.603 6.39086 17.603 10.7124ZM24.5105 10.3074C24.5105 -0.267171 12.2771 0.000622333 12.2771 0.000622333H0.496994C0.224991 0.000622333 0 0.228247 0 0.405661V21.374H12.2771C12.2771 21.374 18.1 21.1062 18.1 25.334C18.1 28.7985 14.5337 29.4279 12.2771 29.4279H6.90754V35.9989H12.2771C14.715 35.9989 25.0075 35.5503 25.0075 25.5147C25.0075 25.5147 25.2325 19.9346 19.5003 17.9997C22.2539 16.875 24.5105 14.4916 24.5105 10.3074Z" fill="#EFEFEF"/>
<path d="M59.5794 35.4607L45.855 0.272537C45.7206 -0.0856375 45.0893 -0.0856375 44.9517 0.272537L31.2743 35.4607C31.1399 35.7285 31.3213 35.9996 31.7276 35.9996H37.9098C38.0911 35.9996 38.3161 35.9093 38.3631 35.7285L45.405 15.6607L52.5375 35.7285C52.5812 35.9093 52.8062 35.9996 52.9438 35.9996H59.1731C59.4887 35.9996 59.7137 35.7285 59.5794 35.4607Z" fill="#EFEFEF"/>
<path d="M85.4866 29.2951H65.9863V35.595C65.9863 35.7757 66.2113 36 66.4833 36H85.4866C85.8023 36 85.9836 35.7757 85.9836 35.595V29.747C85.9836 29.5194 85.8023 29.2951 85.4866 29.2951ZM72.8939 22.4128V0.406809C72.8939 0.229394 72.7125 0.00177002 72.4405 0.00177002H66.4833C66.2113 0.00177002 65.9863 0.229394 65.9863 0.406809V22.4128H72.8939Z" fill="#EFEFEF"/>
<path d="M124.297 27.3155H131.16V0.405527C131.16 0.228113 130.979 0.000488281 130.663 0.000488281H124.703C124.525 0.000488281 124.297 0.137733 124.209 0.27163L111.885 26.6393L98.9297 0.27163C98.8861 0.137733 98.6141 0.000488281 98.4797 0.000488281H92.4285C92.1128 0.000488281 91.9785 0.228113 91.9785 0.405527V35.5937C91.9785 35.7745 92.1128 35.9987 92.4285 35.9987H98.3891C98.6577 35.9987 98.8861 35.7745 98.8861 35.5937V15.392L108.682 34.2882C108.725 34.4254 108.997 34.5593 109.132 34.5593H114.682C114.82 34.5593 115.045 34.4254 115.089 34.2882L124.297 15.884V27.3155Z" fill="#EFEFEF"/>
<path d="M158.603 6.88664L154.812 12.1521L146.235 0.138221C146.145 0.0478403 145.916 0.000976562 145.782 0.000976562H138.65C138.153 0.000976562 137.975 0.362498 138.2 0.677157C142.579 6.79626 147.048 12.9154 151.38 19.0813V35.5942C151.38 35.7749 151.561 35.9992 151.877 35.9992H157.791C158.059 35.9992 158.288 35.7749 158.288 35.5942V19.0813L166.998 6.88664H158.603Z" fill="#EFEFEF"/>
</svg>
