<svg width="167" height="36" viewBox="0 0 167 36" fill="none" xmlns="http://www.w3.org/2000/svg">
<path d="M17.603 10.7124C17.603 14.6724 12.2771 14.6724 12.2771 14.6724H6.86053V6.43773H12.2771C12.2771 6.43773 17.603 6.39086 17.603 10.7124ZM24.5105 10.3074C24.5105 -0.267171 12.2771 0.000622333 12.2771 0.000622333H0.496994C0.224991 0.000622333 0 0.228247 0 0.405661V21.374H12.2771C12.2771 21.374 18.1 21.1062 18.1 25.334C18.1 28.7985 14.5337 29.4279 12.2771 29.4279H6.90754V35.9989H12.2771C14.715 35.9989 25.0075 35.5503 25.0075 25.5147C25.0075 25.5147 25.2325 19.9346 19.5003 17.9997C22.2539 16.875 24.5105 14.4916 24.5105 10.3074Z" fill="white"/>
<path d="M59.5794 35.4607L45.855 0.272537C45.7206 -0.0856375 45.0893 -0.0856375 44.9517 0.272537L31.2743 35.4607C31.1399 35.7285 31.3213 35.9996 31.7276 35.9996H37.9098C38.0911 35.9996 38.3161 35.9093 38.3631 35.7285L45.405 15.6607L52.5375 35.7285C52.5812 35.9093 52.8062 35.9996 52.9438 35.9996H59.1731C59.4887 35.9996 59.7137 35.7285 59.5794 35.4607Z" fill="white"/>
<path d="M85.4866 29.2953H65.9863V35.5952C65.9863 35.7759 66.2113 36.0002 66.4833 36.0002H85.4866C85.8023 36.0002 85.9836 35.7759 85.9836 35.5952V29.7472C85.9836 29.5196 85.8023 29.2953 85.4866 29.2953ZM72.8939 22.413V0.406992C72.8939 0.229578 72.7125 0.00195312 72.4405 0.00195312H66.4833C66.2113 0.00195312 65.9863 0.229578 65.9863 0.406992V22.413H72.8939Z" fill="white"/>
<path d="M124.297 27.316H131.16V0.406015C131.16 0.228601 130.979 0.000976562 130.663 0.000976562H124.703C124.525 0.000976562 124.297 0.138221 124.209 0.272118L111.885 26.6398L98.9297 0.272118C98.8861 0.138221 98.6141 0.000976562 98.4797 0.000976562H92.4285C92.1128 0.000976562 91.9785 0.228601 91.9785 0.406015V35.5942C91.9785 35.7749 92.1128 35.9992 92.4285 35.9992H98.3891C98.6577 35.9992 98.8861 35.7749 98.8861 35.5942V15.3925L108.682 34.2887C108.725 34.4259 108.997 34.5598 109.132 34.5598H114.682C114.82 34.5598 115.045 34.4259 115.089 34.2887L124.297 15.8845V27.316Z" fill="white"/>
<path d="M158.603 6.88664L154.812 12.1521L146.235 0.138221C146.145 0.0478403 145.916 0.000976562 145.782 0.000976562H138.65C138.153 0.000976562 137.975 0.362498 138.2 0.677157C142.579 6.79626 147.048 12.9154 151.38 19.0813V35.5942C151.38 35.7749 151.561 35.9992 151.877 35.9992H157.791C158.059 35.9992 158.288 35.7749 158.288 35.5942V19.0813L166.998 6.88664H158.603Z" fill="white"/>
</svg>
