<svg width="30" height="30" viewBox="0 0 30 30" fill="none" xmlns="http://www.w3.org/2000/svg">
<g clip-path="url(#clip0_1941_31746)">
<path d="M30.0008 17.2968L26.1289 13.2749L30.0008 9.9375V17.2968Z" fill="#C49B48"/>
<path d="M3.87656 13.2749L0 17.3015V9.9375L3.87656 13.2749Z" fill="#C49B48"/>
<path d="M30 20.9534V24.6564C30 25.5518 29.2734 26.2784 28.3781 26.2784H1.62188C0.726504 26.2784 0 25.5519 0 24.6564V20.9534L5.79838 14.9346L12.4219 20.6392C13.1109 21.2299 14.0249 21.5581 15 21.5581C15.9751 21.5581 16.8937 21.2299 17.5828 20.6392L24.2015 14.9346L30 20.9534Z" fill="#C49B48"/>
<path d="M30 5.33887V6.96074L15.853 19.1482C15.3983 19.542 14.6015 19.542 14.1468 19.1482L0 6.96074V5.33887C0 4.44361 0.726445 3.72168 1.62188 3.72168H28.3781C29.2734 3.72168 30 4.44361 30 5.33887Z" fill="#C49B48"/>
</g>
<defs>
<clipPath id="clip0_1941_31746">
<rect width="30" height="30" fill="white"/>
</clipPath>
</defs>
</svg>
