<svg width="30" height="30" viewBox="0 0 30 30" fill="none" xmlns="http://www.w3.org/2000/svg">
<g clip-path="url(#clip0_3404_3592)">
<path d="M30.0008 17.2968L26.1289 13.2749L30.0008 9.9375V17.2968Z" />
<path d="M3.87656 13.2749L0 17.3015V9.9375L3.87656 13.2749Z" />
<path d="M30 20.9529V24.656C30 25.5513 29.2734 26.2779 28.3781 26.2779H1.62188C0.726504 26.2779 0 25.5514 0 24.656V20.9529L5.79838 14.9341L12.4219 20.6387C13.1109 21.2295 14.0249 21.5576 15 21.5576C15.9751 21.5576 16.8937 21.2295 17.5828 20.6387L24.2015 14.9341L30 20.9529Z" />
<path d="M30 5.33887V6.96074L15.853 19.1482C15.3983 19.542 14.6015 19.542 14.1468 19.1482L0 6.96074V5.33887C0 4.44361 0.726445 3.72168 1.62188 3.72168H28.3781C29.2734 3.72168 30 4.44361 30 5.33887Z" />
</g>
<defs>
<clipPath id="clip0_3404_3592">
<rect width="30" height="30" />
</clipPath>
</defs>
</svg>
