<svg width="30" height="31" viewBox="0 0 30 31" fill="none" xmlns="http://www.w3.org/2000/svg">
<path d="M15.25 0.5C8.99805 0.5 4 5.49805 4 11.75C4 13.9121 4.64453 15.582 5.76367 17.2754L14.0664 29.873C14.3184 30.2539 14.752 30.5 15.25 30.5C15.748 30.5 16.1875 30.248 16.4336 29.873L24.7363 17.2754C25.8555 15.582 26.5 13.9121 26.5 11.75C26.5 5.49805 21.502 0.5 15.25 0.5ZM15.25 17.9961C11.7988 17.9961 8.99805 15.1953 8.99805 11.7383C8.99805 8.28125 11.7988 5.48047 15.25 5.48047C18.7012 5.48047 21.502 8.28125 21.502 11.7383C21.502 15.1953 18.7012 17.9961 15.25 17.9961ZM15.25 8C13.1758 8 11.5 9.67578 11.5 11.75C11.5 13.8242 13.1758 15.5 15.25 15.5C17.3242 15.5 19 13.8242 19 11.75C19 9.67578 17.3242 8 15.25 8Z" fill="#C49B48"/>
</svg>
