<svg width="28" height="28" viewBox="0 0 28 28" fill="none" xmlns="http://www.w3.org/2000/svg">
<path d="M22.1673 10.4997C22.1673 12.1913 21.6657 13.743 20.8023 15.038C19.5423 16.9047 17.5473 18.223 15.2257 18.5613C14.829 18.6313 14.4207 18.6663 14.0007 18.6663C13.5807 18.6663 13.1723 18.6313 12.7757 18.5613C10.454 18.223 8.45898 16.9047 7.19898 15.038C6.33565 13.743 5.83398 12.1913 5.83398 10.4997C5.83398 5.98467 9.48565 2.33301 14.0007 2.33301C18.5157 2.33301 22.1673 5.98467 22.1673 10.4997Z" stroke="#C49B48" stroke-width="1.5" stroke-linecap="round" stroke-linejoin="round"/>
<path d="M24.7909 21.5481L22.8659 22.0031C22.4343 22.1081 22.0959 22.4348 22.0026 22.8665L21.5943 24.5815C21.3726 25.5148 20.1826 25.7948 19.5643 25.0598L13.9993 18.6665L8.43428 25.0715C7.81595 25.8065 6.62594 25.5265 6.40428 24.5931L5.99594 22.8781C5.89094 22.4465 5.55261 22.1081 5.13261 22.0148L3.20761 21.5598C2.32094 21.3498 2.00594 20.2415 2.64761 19.5998L7.19761 15.0498C8.45761 16.9165 10.4526 18.2348 12.7743 18.5731C13.1709 18.6431 13.5793 18.6781 13.9993 18.6781C14.4193 18.6781 14.8276 18.6431 15.2243 18.5731C17.5459 18.2348 19.5409 16.9165 20.8009 15.0498L25.3509 19.5998C25.9926 20.2298 25.6776 21.3381 24.7909 21.5481Z" stroke="#C49B48" stroke-width="1.5" stroke-linecap="round" stroke-linejoin="round"/>
<path d="M14.6763 6.97699L15.3647 8.35365C15.458 8.54031 15.703 8.72699 15.9247 8.76199L17.173 8.97198C17.9663 9.10031 18.153 9.68366 17.5813 10.2553L16.613 11.2236C16.4497 11.387 16.3563 11.702 16.4147 11.9353L16.6947 13.137C16.9163 14.082 16.4147 14.4553 15.5747 13.9537L14.408 13.2653C14.198 13.137 13.848 13.137 13.638 13.2653L12.4713 13.9537C11.6313 14.4437 11.1296 14.082 11.3513 13.137L11.6313 11.9353C11.678 11.7137 11.5963 11.387 11.433 11.2236L10.4646 10.2553C9.89298 9.68366 10.0796 9.11198 10.873 8.97198L12.1213 8.76199C12.3313 8.72699 12.5763 8.54031 12.6697 8.35365L13.358 6.97699C13.6963 6.23033 14.303 6.23033 14.6763 6.97699Z" stroke="#C49B48" stroke-width="1.5" stroke-linecap="round" stroke-linejoin="round"/>
</svg>
