<svg width="190" height="64" viewBox="0 0 190 64" fill="none" xmlns="http://www.w3.org/2000/svg">
<g clip-path="url(#clip0_3413_9751)">
<path d="M14.7189 62.8317V58.6458C14.7189 57.0404 13.7419 55.9944 12.1383 55.9944C11.2961 55.9944 10.3949 56.274 9.76654 57.1735C9.27803 56.4054 8.58739 55.9944 7.53458 55.9944C7.14315 55.9774 6.75362 56.0578 6.40087 56.2283C6.04811 56.3988 5.74312 56.6541 5.51319 56.9714V56.1291H4.1875V62.8267H5.51319V58.9944C5.51319 57.8153 6.21057 57.251 7.18758 57.251C8.16459 57.251 8.72215 57.8793 8.72215 58.9944V62.8317H10.0478V58.9944C10.0478 57.8153 10.7452 57.251 11.7222 57.251C12.6992 57.251 13.2568 57.8793 13.2568 58.9944V62.8317H14.7189ZM36.486 56.2032H34.0434V54.1819H32.7211V56.2032H31.3263V57.3824H32.7211V60.529C32.7211 62.0636 33.2787 62.9715 34.9531 62.9715C35.5874 62.9583 36.209 62.7906 36.7639 62.483L36.3445 61.3039C35.9681 61.5391 35.5316 61.6602 35.0878 61.6526C34.3904 61.6526 34.0417 61.2331 34.0417 60.5358V57.3285H36.4843V56.2117L36.486 56.2032ZM48.904 55.9944C48.5429 55.9863 48.1859 56.0721 47.8679 56.2434C47.5499 56.4146 47.2818 56.6655 47.0898 56.9714V56.1291H45.7641V62.8267H47.0898V59.0652C47.0898 57.9484 47.6474 57.251 48.5553 57.251C48.8617 57.2634 49.1657 57.3103 49.4616 57.3908L49.881 56.1342C49.5611 56.0535 49.2337 56.0067 48.904 55.9944ZM30.1371 56.6917C29.4397 56.2032 28.4627 55.9944 27.4166 55.9944C25.7423 55.9944 24.6962 56.7625 24.6962 58.0882C24.6962 59.205 25.4643 59.8316 26.9281 60.0422L27.6255 60.1113C28.3936 60.2511 28.8822 60.5307 28.8822 60.8794C28.8822 61.3679 28.3246 61.7216 27.2768 61.7216C26.4768 61.7381 25.6932 61.4933 25.0449 61.0243L24.3475 62.0703C25.3245 62.7677 26.5104 62.9126 27.2111 62.9126C29.1651 62.9126 30.2112 62.0063 30.2112 60.7497C30.2112 59.5705 29.369 59.0062 27.9085 58.7957L27.2111 58.7266C26.5828 58.6575 26.032 58.447 26.032 58.0292C26.032 57.5407 26.5896 57.187 27.3577 57.187C28.1999 57.187 29.0321 57.5357 29.4515 57.7446L30.1371 56.6917ZM50.3695 59.4829C50.3695 61.5043 51.6952 62.9715 53.8581 62.9715C54.8351 62.9715 55.5325 62.7627 56.2299 62.2034L55.5325 61.1573C55.0387 61.5572 54.4244 61.7786 53.7891 61.7856C52.6099 61.7856 51.6952 60.8794 51.6952 59.5537C51.6952 58.228 52.5981 57.3285 53.7891 57.3285C54.4244 57.3355 55.0387 57.5569 55.5325 57.9568L56.2299 56.9107C55.5325 56.3532 54.8351 56.1426 53.8581 56.1426C51.7643 56.0028 50.3695 57.4683 50.3695 59.4914V59.4829ZM41.0206 55.9944C39.0666 55.9944 37.7409 57.3891 37.7409 59.4829C37.7409 61.5768 39.1357 62.9715 41.1587 62.9715C42.1429 62.9923 43.1041 62.6721 43.8792 62.0653L43.1818 61.0883C42.6212 61.5227 41.9367 61.7669 41.2278 61.7856C40.3215 61.7856 39.3445 61.2281 39.2064 60.0422H44.1605V59.4846C44.1605 57.3908 42.9039 55.996 41.0206 55.996V55.9944ZM40.9515 57.251C41.9285 57.251 42.6259 57.8793 42.695 58.9254H39.0683C39.2771 57.9484 39.9105 57.251 40.9515 57.251ZM22.882 59.4829V56.1342H21.5563V56.9764C21.0678 56.3481 20.3772 55.9994 19.3934 55.9994C17.5101 55.9994 16.1137 57.4649 16.1137 59.488C16.1137 61.5111 17.5085 62.9766 19.3934 62.9766C20.3704 62.9766 21.0678 62.6279 21.5563 61.9996V62.8418H22.882V59.4829ZM17.5101 59.4829C17.5101 58.2263 18.2783 57.251 19.604 57.251C20.8606 57.251 21.6254 58.228 21.6254 59.4829C21.6254 60.8086 20.7831 61.7149 19.604 61.7149C18.2783 61.784 17.5101 60.7379 17.5101 59.4829ZM69.0691 55.9944C68.708 55.9863 68.351 56.0721 68.033 56.2434C67.715 56.4146 67.4469 56.6655 67.2549 56.9714V56.1291H65.9292V62.8267H67.2532V59.0652C67.2532 57.9484 67.8108 57.251 68.7187 57.251C69.0251 57.2634 69.3291 57.3103 69.625 57.3908L70.0444 56.1342C69.7245 56.0535 69.3971 56.0067 69.0674 55.9944H69.0691ZM63.9061 59.4829V56.1342H62.5804V56.9764C62.0919 56.3481 61.4013 55.9994 60.4175 55.9994C58.5343 55.9994 57.1378 57.4649 57.1378 59.488C57.1378 61.5111 58.5326 62.9766 60.4175 62.9766C61.3945 62.9766 62.0919 62.6279 62.5804 61.9996V62.8418H63.9061V59.4829ZM58.5343 59.4829C58.5343 58.2263 59.3024 57.251 60.6281 57.251C61.8847 57.251 62.6495 58.228 62.6495 59.4829C62.6495 60.8086 61.8072 61.7149 60.6281 61.7149C59.3024 61.784 58.5343 60.7379 58.5343 59.4829ZM77.3719 59.4829V53.4828H76.0462V56.9714C75.5577 56.3431 74.8671 55.9944 73.8834 55.9944C72.0001 55.9944 70.6037 57.4599 70.6037 59.4829C70.6037 61.506 71.9984 62.9715 73.8834 62.9715C74.8604 62.9715 75.5577 62.6228 76.0462 61.9945V62.8368H77.3719V59.4829ZM72.0001 59.4829C72.0001 58.2263 72.7682 57.251 74.0939 57.251C75.3505 57.251 76.1153 58.228 76.1153 59.4829C76.1153 60.8086 75.2731 61.7149 74.0939 61.7149C72.7665 61.7856 71.9984 60.7396 71.9984 59.4829H72.0001Z" fill="black"/>
<path d="M52.8111 5.37183H28.6016V44.8597H52.8111V5.37183Z" fill="#FF5F00"/>
<path d="M31.0463 25.1158C31.0471 21.317 31.9074 17.5677 33.5626 14.1485C35.2178 10.7293 37.625 7.72887 40.6041 5.37186C36.8992 2.45889 32.4494 0.647141 27.7634 0.143712C23.0775 -0.359717 18.3444 0.465491 14.1053 2.525C9.86613 4.58452 6.292 7.79523 3.79145 11.7901C1.29091 15.785 -0.0351563 20.4028 -0.0351562 25.1158C-0.0351562 29.8287 1.29091 34.4466 3.79145 38.4415C6.292 42.4364 9.86613 45.6471 14.1053 47.7066C18.3444 49.7661 23.0775 50.5913 27.7634 50.0879C32.4494 49.5844 36.8992 47.7727 40.6041 44.8597C37.625 42.5027 35.2178 39.5023 33.5626 36.0831C31.9074 32.6639 31.0471 28.9145 31.0463 25.1158Z" fill="#EB001B"/>
<path d="M81.2799 25.1158C81.2833 29.8253 79.9611 34.4407 77.4647 38.4341C74.9682 42.4275 71.3983 45.6377 67.1631 47.6975C62.9279 49.7572 58.1985 50.5835 53.5158 50.0816C48.8331 49.5798 44.3861 47.7702 40.6836 44.8597C43.6634 42.5033 46.0712 39.503 47.7265 36.0837C49.3818 32.6644 50.2417 28.9147 50.2417 25.1158C50.2417 21.3169 49.3818 17.5672 47.7265 14.1479C46.0712 10.7286 43.6634 7.72825 40.6836 5.37185C44.3861 2.46141 48.8331 0.651779 53.5158 0.149945C58.1985 -0.351889 62.9279 0.474333 67.1631 2.53411C71.3983 4.59389 74.9682 7.80406 77.4647 11.7975C79.9611 15.7909 81.2833 20.4063 81.2799 25.1158Z" fill="#F79E1B"/>
</g>
<g clip-path="url(#clip1_3413_9751)">
<path d="M190 0.365723H90V63.8889H190V0.365723Z" fill="white"/>
<path d="M188.332 53.5671H91.6641V62.2338H188.332V53.5671Z" fill="#FCB315"/>
<path d="M188.332 2.03198H91.6641V10.6987H188.332V2.03198Z" fill="#0D357F"/>
<path d="M139.165 20.2472L134.07 44.069H127.907L133.003 20.2472H139.165ZM165.093 35.6292L168.338 26.6833L170.204 35.6292H165.093ZM171.973 44.069H177.671L172.692 20.2472H167.436C166.251 20.2472 165.252 20.9342 164.81 21.9935L155.563 44.069H162.035L163.32 40.5111H171.226L171.973 44.069ZM155.884 36.2917C155.911 30.0051 147.193 29.6565 147.251 26.8477C147.27 25.994 148.084 25.0847 149.864 24.8523C150.747 24.7384 153.182 24.6467 155.943 25.9185L157.022 20.8648C155.539 20.3287 153.631 19.812 151.257 19.812C145.165 19.812 140.879 23.0481 140.845 27.6861C140.806 31.1157 143.907 33.0278 146.238 34.1699C148.641 35.3375 149.446 36.0866 149.435 37.1296C149.418 38.7278 147.518 39.4352 145.749 39.462C142.649 39.5102 140.852 38.6241 139.42 37.9565L138.301 43.1787C139.743 43.8389 142.401 44.4134 145.152 44.443C151.629 44.443 155.865 41.2444 155.884 36.2917ZM130.359 20.2472L120.374 44.069H113.86L108.945 25.0574C108.648 23.8884 108.388 23.4588 107.482 22.9648C106 22.1597 103.553 21.4069 101.402 20.9384L101.548 20.2472H112.035C113.37 20.2472 114.572 21.1361 114.878 22.6745L117.474 36.4602L123.885 20.2472H130.359Z" fill="#0D357F"/>
</g>
<defs>
<clipPath id="clip0_3413_9751">
<rect width="81.2784" height="63" fill="white"/>
</clipPath>
<clipPath id="clip1_3413_9751">
<rect width="100" height="63.8889" fill="white" transform="translate(90)"/>
</clipPath>
</defs>
</svg>
