<svg width="100" height="100" viewBox="0 0 100 100" fill="none" xmlns="http://www.w3.org/2000/svg">
<path d="M28.0547 20.1172L49.4141 6.40622C50.2809 5.85029 51.2605 5.49391 52.2819 5.36286C53.3034 5.2318 54.3412 5.32933 55.3203 5.64841L74.4141 11.8672H89.9375V32.7871H80.541C80.541 32.7871 77.4258 38.8144 70.084 38.8144H28.0547V20.1172Z" fill="#FCD8C0"/>
<path d="M79.1562 26.9082L47.6113 17.9414H62.6055V17.5508C62.6065 17.2289 62.5439 16.9099 62.4211 16.6123C62.2984 16.3147 62.118 16.0443 61.8904 15.8166C61.6628 15.589 61.3924 15.4086 61.0947 15.2859C60.7971 15.1632 60.4782 15.1005 60.1562 15.1016H35.8633L28.0508 20.1113V38.8145H70.084C71.8233 38.827 73.5441 38.4576 75.125 37.7324C79.1016 33.2871 79.1562 26.9082 79.1562 26.9082Z" fill="#EF9E86"/>
<path d="M10.0703 20.6035V49.1582C10.0703 49.8891 10.3607 50.5901 10.8775 51.1069C11.3943 51.6237 12.0953 51.9141 12.8262 51.9141H70.2656C70.9965 51.9141 71.6975 51.6237 72.2143 51.1069C72.7311 50.5901 73.0215 49.8891 73.0215 49.1582V17.8477H12.8262C12.0953 17.8477 11.3943 18.138 10.8775 18.6548C10.3607 19.1717 10.0703 19.8726 10.0703 20.6035Z" fill="#AABC80"/>
<path d="M10.0703 20.6035V33.8398C12.3399 34.7669 14.829 35.0187 17.2383 34.5649C19.6475 34.1112 21.8745 32.9712 23.6513 31.282C25.4282 29.5928 26.6793 27.4264 27.2543 25.0431C27.8293 22.6598 27.7037 20.1612 26.8926 17.8477H12.8301C12.4678 17.8471 12.1091 17.918 11.7743 18.0563C11.4394 18.1946 11.1352 18.3975 10.8789 18.6534C10.6225 18.9094 10.4192 19.2134 10.2805 19.548C10.1417 19.8826 10.0703 20.2413 10.0703 20.6035Z" fill="#C7DBA2"/>
<path d="M67.6953 41.7559C66.4127 41.7559 65.1827 42.2654 64.2758 43.1723C63.3689 44.0792 62.8594 45.3092 62.8594 46.5918H20.2246C20.2246 45.3096 19.7154 44.0798 18.8089 43.173C17.9024 42.2661 16.6729 41.7564 15.3906 41.7559V28.0059C16.6727 28.0059 17.9022 27.4966 18.8088 26.59C19.7153 25.6835 20.2246 24.4539 20.2246 23.1719H62.8594C62.8594 23.8068 62.9845 24.4356 63.2275 25.0222C63.4706 25.6088 63.8268 26.1418 64.2759 26.5907C64.725 27.0396 65.2581 27.3956 65.8448 27.6385C66.4315 27.8813 67.0603 28.0061 67.6953 28.0059V41.7559Z" fill="#C7DBA2"/>
<path d="M78.0508 27.0293C75.5898 31.7324 69.6523 31.8535 69.6523 31.8535C61.6953 31.8535 59.4512 26.0176 59.4512 26.0176H49.002C47.9195 26.0165 46.8817 25.5858 46.1167 24.82C45.3516 24.0542 44.9219 23.016 44.9219 21.9336C44.9219 20.8503 45.3521 19.8113 46.1179 19.0451C46.8838 18.2789 47.9225 17.8482 49.0059 17.8476H61.4844L73.3223 16.0488C73.9469 15.9531 74.5849 15.9963 75.1909 16.1753C75.7969 16.3544 76.356 16.6649 76.8282 17.0848C77.3005 17.5046 77.6743 18.0235 77.9231 18.6043C78.1719 19.1852 78.2895 19.8138 78.2676 20.4453L78.0508 27.0293Z" fill="#FCD8C0"/>
<path d="M10.1562 94.6973L22.6348 76.2539C24.3698 73.6815 26.7736 71.631 29.5874 70.3232C32.4012 69.0154 35.5185 68.4998 38.6035 68.832C40.5998 69.0386 42.5658 69.4738 44.4629 70.1289C45.5794 70.5282 46.7556 70.7349 47.9414 70.7402H59.2891C59.8659 70.7402 60.4371 70.8539 60.97 71.0746C61.503 71.2953 61.9872 71.6189 62.3951 72.0268C62.803 72.4347 63.1265 72.9189 63.3473 73.4518C63.568 73.9848 63.6816 74.556 63.6816 75.1328L74.6543 63.2715C75.3625 62.5059 76.3338 62.0362 77.3737 61.9565C78.4136 61.8768 79.4452 62.193 80.2617 62.8418C80.6913 63.1827 81.0488 63.6055 81.3135 64.0858C81.5781 64.5661 81.7447 65.0942 81.8034 65.6395C81.8621 66.1847 81.8118 66.7362 81.6554 67.2618C81.4991 67.7874 81.2398 68.2767 80.8926 68.7012L68.6348 83.6895C67.5678 84.9955 66.0499 85.854 64.3809 86.0957L40.666 89.5215C39.6299 89.6719 38.6426 90.06 37.7813 90.6553C36.92 91.2506 36.2081 92.037 35.7012 92.9531L34.7363 94.6973H10.1562Z" fill="#FCD8C0"/>
<path d="M59.4863 80.1231H46.5195L42.2227 83.5859V84.3438L43.9004 84.3223C45.014 84.3081 46.085 83.8919 46.916 83.1504L47.0547 83.0273C47.6586 82.4846 48.442 82.1847 49.2539 82.1856H60.6523C61.6291 82.1967 62.587 81.9161 63.4034 81.3795C64.2197 80.843 64.8572 80.0749 65.2344 79.1738C65.7305 77.9414 65.793 76.3125 64.7305 74.2539L64.5684 74.1738L63.6856 75.1289C63.6387 78.8164 59.4863 80.1231 59.4863 80.1231Z" fill="#EF9E86"/>
<path d="M27.5547 23.1719H20.2246C20.2246 24.4539 19.7153 25.6835 18.8088 26.59C17.9022 27.4966 16.6727 28.0059 15.3906 28.0059V34.7656C18.4811 34.6422 21.4207 33.3971 23.6595 31.2632C25.8984 29.1293 27.2831 26.2528 27.5547 23.1719Z" fill="#E0EDC3"/>
<path d="M89.9297 10.7539H74.584L55.6621 4.58983C54.5266 4.21749 53.3223 4.10319 52.137 4.25523C50.9517 4.40728 49.8153 4.82185 48.8105 5.46874L37.4102 12.7851C37.2842 12.8627 37.1749 12.9647 37.0888 13.085C37.0027 13.2053 36.9414 13.3416 36.9085 13.4859C36.8757 13.6301 36.8719 13.7795 36.8975 13.9253C36.923 14.071 36.9774 14.2102 37.0573 14.3347C37.1373 14.4592 37.2413 14.5665 37.3632 14.6503C37.4851 14.7342 37.6226 14.7929 37.7674 14.823C37.9123 14.8531 38.0617 14.8541 38.2069 14.8258C38.3522 14.7975 38.4903 14.7405 38.6133 14.6582L50.0117 7.34373C50.739 6.8749 51.5619 6.57443 52.4202 6.46427C53.2785 6.35412 54.1505 6.43705 54.9727 6.70702L74.0625 12.9258C74.1736 12.9615 74.2895 12.9799 74.4062 12.9805H88.8164V31.6738H80.5391C80.335 31.6739 80.1349 31.73 79.9606 31.8361C79.7863 31.9422 79.6446 32.0942 79.5508 32.2754C78.3047 34.3848 76.4006 36.0269 74.1309 36.9492V31.9394C75.9141 31.1777 77.8262 29.8535 79.0332 27.5469C79.1074 27.417 79.1546 27.2735 79.1721 27.1249C79.1896 26.9764 79.1769 26.8259 79.1349 26.6823C79.0929 26.5388 79.0225 26.4051 78.9277 26.2894C78.8329 26.1737 78.7158 26.0783 78.5834 26.0088C78.4509 25.9394 78.3058 25.8973 78.1567 25.8852C78.0076 25.8731 77.8577 25.8911 77.7157 25.9382C77.5738 25.9854 77.4428 26.0606 77.3305 26.1595C77.2183 26.2583 77.1271 26.3788 77.0625 26.5137C74.9453 30.5586 69.6836 30.7383 69.6562 30.7402C62.6094 30.7402 60.5762 25.8223 60.4941 25.6172C60.4135 25.4071 60.2709 25.2265 60.0854 25.0992C59.8999 24.9719 59.6801 24.904 59.4551 24.9043H49C48.6033 24.9145 48.2087 24.8451 47.8392 24.7003C47.4698 24.5556 47.1331 24.3383 46.8489 24.0614C46.5648 23.7844 46.339 23.4534 46.1848 23.0878C46.0306 22.7222 45.9511 22.3294 45.9511 21.9326C45.9511 21.5358 46.0306 21.143 46.1848 20.7774C46.339 20.4118 46.5648 20.0808 46.8489 19.8039C47.1331 19.5269 47.4698 19.3096 47.8392 19.1649C48.2087 19.0201 48.6033 18.9508 49 18.9609H61.4824C61.7777 18.9609 62.0608 18.8436 62.2696 18.6348C62.4784 18.4261 62.5957 18.1429 62.5957 17.8476C62.5957 17.5524 62.4784 17.2692 62.2696 17.0604C62.0608 16.8517 61.7777 16.7344 61.4824 16.7344H49C47.6388 16.7607 46.3422 17.32 45.3889 18.292C44.4356 19.264 43.9015 20.5711 43.9015 21.9326C43.9015 23.2941 44.4356 24.6012 45.3889 25.5732C46.3422 26.5452 47.6388 27.1045 49 27.1308H58.7656C59.6953 28.8359 62.6719 32.9668 69.6855 32.9668C70.4351 32.932 71.1798 32.8281 71.9102 32.6562V49.1582C71.9096 49.5937 71.7364 50.0112 71.4285 50.3191C71.1205 50.627 70.7031 50.8003 70.2676 50.8008H12.8223C12.3868 50.8003 11.9693 50.627 11.6614 50.3191C11.3534 50.0112 11.1802 49.5937 11.1797 49.1582V20.6035C11.1802 20.168 11.3534 19.7505 11.6614 19.4426C11.9693 19.1347 12.3868 18.9614 12.8223 18.9609H41.209C41.5042 18.9609 41.7874 18.8436 41.9962 18.6348C42.205 18.4261 42.3223 18.1429 42.3223 17.8476C42.3223 17.5524 42.205 17.2692 41.9962 17.0604C41.7874 16.8517 41.5042 16.7344 41.209 16.7344H12.8223C11.7966 16.7359 10.8134 17.144 10.0881 17.8693C9.36281 18.5946 8.95467 19.5778 8.95312 20.6035V49.1582C8.95416 50.184 9.36213 51.1676 10.0875 51.8929C10.8129 52.6183 11.7964 53.0263 12.8223 53.0273H70.2617C71.2876 53.0263 72.2711 52.6183 72.9965 51.8929C73.7218 51.1676 74.1298 50.184 74.1309 49.1582V39.3086C78.1211 38.0371 80.3555 35.1601 81.1621 33.9004H89.9219C90.2171 33.9004 90.5003 33.7831 90.7091 33.5743C90.9179 33.3655 91.0351 33.0824 91.0351 32.7871V11.8672C91.0352 11.5733 90.9189 11.2913 90.7118 11.0827C90.5048 10.8742 90.2236 10.756 89.9297 10.7539Z" fill="#4D4D4D"/>
<path d="M16.5059 40.748V29.0156C17.6766 28.7902 18.7529 28.219 19.5958 27.3758C20.4387 26.5326 21.0095 25.456 21.2344 24.2852H40.2344C40.5296 24.2852 40.8128 24.1679 41.0216 23.9591C41.2304 23.7503 41.3477 23.4671 41.3477 23.1719C41.3477 22.8766 41.2304 22.5934 41.0216 22.3847C40.8128 22.1759 40.5296 22.0586 40.2344 22.0586H20.2266C19.9313 22.0586 19.6481 22.1759 19.4394 22.3847C19.2306 22.5934 19.1133 22.8766 19.1133 23.1719C19.1092 24.1548 18.7169 25.0963 18.0218 25.7914C17.3268 26.4864 16.3853 26.8787 15.4023 26.8828C15.2561 26.8828 15.1114 26.9116 14.9763 26.9676C14.8412 27.0235 14.7185 27.1055 14.6151 27.2089C14.5118 27.3123 14.4298 27.435 14.3738 27.5701C14.3179 27.7051 14.2891 27.8499 14.2891 27.9961V41.7461C14.2891 41.8923 14.3179 42.0371 14.3738 42.1721C14.4298 42.3072 14.5118 42.4299 14.6151 42.5333C14.7185 42.6367 14.8412 42.7187 14.9763 42.7746C15.1114 42.8306 15.2561 42.8594 15.4023 42.8594C16.3873 42.8635 17.3306 43.2574 18.0259 43.955C18.7213 44.6526 19.1123 45.5971 19.1133 46.582C19.1133 46.8773 19.2306 47.1605 19.4394 47.3692C19.6481 47.578 19.9313 47.6953 20.2266 47.6953H62.8613C63.1566 47.6953 63.4398 47.578 63.6485 47.3692C63.8573 47.1605 63.9746 46.8773 63.9746 46.582C63.9756 45.595 64.3682 44.6488 65.0661 43.9509C65.764 43.2529 66.7103 42.8604 67.6973 42.8594C67.9922 42.8589 68.2748 42.7413 68.4832 42.5326C68.6916 42.3239 68.8086 42.041 68.8086 41.7461V36.7188C68.8149 36.5688 68.7908 36.419 68.7377 36.2786C68.6846 36.1382 68.6037 36.0099 68.4998 35.9016C68.3959 35.7932 68.2712 35.707 68.1331 35.6481C67.995 35.5892 67.8464 35.5588 67.6963 35.5588C67.5462 35.5588 67.3976 35.5892 67.2595 35.6481C67.1214 35.707 66.9967 35.7932 66.8928 35.9016C66.7889 36.0099 66.7079 36.1382 66.6549 36.2786C66.6018 36.419 66.5777 36.5688 66.584 36.7188V40.7422C65.4129 40.9672 64.3361 41.5383 63.4929 42.3815C62.6496 43.2248 62.0786 44.3015 61.8535 45.4727H21.2285C21.0032 44.3036 20.4329 43.2287 19.5912 42.3866C18.7495 41.5446 17.6749 40.9739 16.5059 40.748Z" fill="#4D4D4D"/>
<path d="M40.0811 31.2187H42.7589C43.0541 31.2187 43.3373 31.1015 43.5461 30.8927C43.7549 30.6839 43.8722 30.4007 43.8722 30.1055C43.8722 29.8102 43.7549 29.527 43.5461 29.3183C43.3373 29.1095 43.0541 28.9922 42.7589 28.9922H41.8839V28.2754C41.8839 27.9801 41.7666 27.697 41.5578 27.4882C41.349 27.2794 41.0659 27.1621 40.7706 27.1621C40.4753 27.1621 40.1922 27.2794 39.9834 27.4882C39.7746 27.697 39.6573 27.9801 39.6573 28.2754V29.0195C38.7718 29.1268 37.9606 29.5681 37.3895 30.2534C36.8184 30.9386 36.5305 31.816 36.5846 32.7064C36.6387 33.5968 37.0307 34.433 37.6806 35.044C38.3305 35.6551 39.1891 35.9949 40.0811 35.9941H41.462C41.8003 35.9941 42.1247 36.1285 42.3638 36.3677C42.603 36.6069 42.7374 36.9313 42.7374 37.2695C42.7374 37.6078 42.603 37.9322 42.3638 38.1714C42.1247 38.4105 41.8003 38.5449 41.462 38.5449H38.7843C38.6343 38.5386 38.4846 38.5627 38.3441 38.6158C38.2037 38.6689 38.0755 38.7498 37.9671 38.8537C37.8588 38.9576 37.7725 39.0824 37.7136 39.2204C37.6547 39.3585 37.6244 39.5071 37.6244 39.6572C37.6244 39.8073 37.6547 39.9559 37.7136 40.094C37.7725 40.2321 37.8588 40.3568 37.9671 40.4607C38.0755 40.5647 38.2037 40.6456 38.3441 40.6986C38.4846 40.7517 38.6343 40.7758 38.7843 40.7695H39.6573V41.4863C39.6573 41.7816 39.7746 42.0648 39.9834 42.2735C40.1922 42.4823 40.4753 42.5996 40.7706 42.5996C41.0659 42.5996 41.349 42.4823 41.5578 42.2735C41.7666 42.0648 41.8839 41.7816 41.8839 41.4863V40.7422C42.7693 40.635 43.5803 40.1938 44.1514 39.5087C44.7225 38.8237 45.0105 37.9465 44.9567 37.0563C44.9028 36.166 44.5112 35.3299 43.8617 34.7187C43.2122 34.1075 42.3539 33.7673 41.462 33.7676H40.0811C39.9042 33.7846 39.7256 33.7644 39.5569 33.7084C39.3882 33.6523 39.2331 33.5616 39.1015 33.4421C38.9699 33.3225 38.8647 33.1768 38.7928 33.0142C38.7208 32.8516 38.6836 32.6758 38.6836 32.498C38.6836 32.3203 38.7208 32.1444 38.7928 31.9819C38.8647 31.8193 38.9699 31.6736 39.1015 31.554C39.2331 31.4345 39.3882 31.3438 39.5569 31.2877C39.7256 31.2317 39.9042 31.2115 40.0811 31.2285V31.2187Z" fill="#4D4D4D"/>
<path d="M28.498 34.0958C28.2907 34.3031 28.1735 34.5838 28.1719 34.877C28.172 34.9511 28.1792 35.025 28.1934 35.0977C28.2086 35.1647 28.2302 35.2301 28.2578 35.293C28.2841 35.3622 28.3188 35.4278 28.3613 35.4883C28.4009 35.549 28.4467 35.6053 28.498 35.6563C28.5492 35.7089 28.6062 35.7554 28.668 35.795C28.7298 35.8354 28.7951 35.87 28.8633 35.8985C28.931 35.9255 29.0009 35.9464 29.0723 35.961C29.1436 35.9752 29.2163 35.9818 29.2891 35.9805C29.582 35.9792 29.8626 35.8628 30.0703 35.6563C30.1217 35.6048 30.1682 35.5486 30.209 35.4883C30.2485 35.426 30.2831 35.3607 30.3125 35.293C30.338 35.2297 30.3583 35.1644 30.373 35.0977C30.3897 35.0254 30.3976 34.9513 30.3965 34.877C30.3953 34.6574 30.3291 34.443 30.2064 34.2608C30.0836 34.0787 29.9097 33.9369 29.7065 33.8534C29.5034 33.7699 29.28 33.7483 29.0646 33.7914C28.8492 33.8346 28.6514 33.9405 28.4961 34.0958H28.498Z" fill="#4D4D4D"/>
<path d="M52.875 35.5C52.9163 35.5599 52.9627 35.6161 53.0137 35.668C53.1295 35.785 53.27 35.8748 53.4249 35.9307C53.5798 35.9867 53.7452 36.0073 53.9091 35.9912C54.073 35.9751 54.2313 35.9227 54.3723 35.8377C54.5134 35.7527 54.6338 35.6374 54.7246 35.5C54.7671 35.4395 54.8019 35.3738 54.8281 35.3047C54.8557 35.2418 54.8773 35.1764 54.8926 35.1094C54.9065 35.0379 54.9136 34.9654 54.9141 34.8926C54.9141 34.5973 54.7968 34.3142 54.588 34.1054C54.3792 33.8966 54.096 33.7793 53.8008 33.7793C53.5055 33.7793 53.2224 33.8966 53.0136 34.1054C52.8048 34.3142 52.6875 34.5973 52.6875 34.8926C52.6886 34.9654 52.6964 35.038 52.7109 35.1094C52.7255 35.1763 52.7465 35.2417 52.7734 35.3047C52.8014 35.3727 52.8354 35.4381 52.875 35.5Z" fill="#4D4D4D"/>
<path d="M80.9619 61.9649C79.9231 61.1478 78.6154 60.7507 77.2978 60.8519C75.9801 60.9532 74.7484 61.5456 73.8467 62.5117L66.8154 70.1289C66.615 70.3457 66.5088 70.6332 66.5204 70.9283C66.5319 71.2233 66.6602 71.5017 66.877 71.7022C67.0938 71.9026 67.3813 72.0088 67.6763 71.9972C67.9714 71.9857 68.2497 71.8574 68.4502 71.6406L75.4815 64.0234C75.8757 63.5983 76.3838 63.2955 76.9453 63.1511C77.5068 63.0067 78.098 63.0267 78.6484 63.2089C79.1988 63.3911 79.6853 63.7276 80.0497 64.1785C80.4142 64.6294 80.6414 65.1756 80.7041 65.752C80.7486 66.1506 80.7126 66.5542 80.5982 66.9387C80.4838 67.3231 80.2933 67.6807 80.0381 67.9902L67.7744 82.9785C66.8833 84.0689 65.6155 84.7854 64.2217 84.9863L40.5088 88.4199C39.3037 88.5978 38.1556 89.0506 37.1535 89.7432C36.1513 90.4358 35.322 91.3496 34.7295 92.4141L34.0811 93.5859H12.2588L23.5615 76.8789C25.1797 74.4704 27.4257 72.5504 30.0565 71.3265C32.6873 70.1027 35.6028 69.6217 38.4873 69.9356C40.4002 70.1338 42.2841 70.5499 44.1026 71.1758C45.3375 71.6178 46.6386 71.8464 47.9502 71.8516H59.2979C60.1671 71.8531 61.0003 72.1991 61.615 72.8138C62.2296 73.4284 62.5756 74.2616 62.5772 75.1309C62.5761 76.0697 62.2027 76.9698 61.5389 77.6336C60.875 78.2974 59.975 78.6708 59.0362 78.6719H48.6338C46.9369 78.6731 45.2936 79.2664 43.9873 80.3496L41.5459 82.375C41.3693 82.5213 41.2422 82.7185 41.1819 82.9398C41.1216 83.161 41.1311 83.3955 41.2091 83.6111C41.2871 83.8268 41.4298 84.0131 41.6177 84.1446C41.8056 84.276 42.0295 84.3463 42.2588 84.3457C42.5182 84.3462 42.7693 84.2549 42.9678 84.0879L45.4092 82.0625C46.315 81.3086 47.4553 80.8942 48.6338 80.8906H59.0362C60.5652 80.8886 62.031 80.2802 63.1122 79.1991C64.1933 78.1179 64.8017 76.6521 64.8037 75.1231C64.8017 73.6634 64.2209 72.2642 63.1888 71.2321C62.1567 70.2 60.7575 69.6193 59.2979 69.6172H47.9502C46.8901 69.612 45.8386 69.4264 44.8408 69.0684C42.8619 68.3859 40.8115 67.9318 38.7295 67.7149C35.4424 67.3564 32.1198 67.9038 29.1213 69.2977C26.1229 70.6916 23.5627 72.8789 21.7178 75.6231L9.23928 94.0723C9.12571 94.2393 9.05978 94.434 9.04858 94.6357C9.03739 94.8373 9.08134 95.0382 9.17573 95.2167C9.27011 95.3952 9.41136 95.5447 9.58429 95.6489C9.75722 95.7532 9.9553 95.8084 10.1572 95.8086H34.7373C34.9367 95.8095 35.1326 95.7566 35.3044 95.6555C35.4763 95.5545 35.6177 95.409 35.7139 95.2344L36.6787 93.4922C37.1039 92.7292 37.6985 92.074 38.4166 91.5769C39.1348 91.0798 39.9575 90.7542 40.8213 90.625L64.544 87.1914C66.4886 86.9114 68.2571 85.9111 69.499 84.3887L81.7569 69.4004C82.197 68.8617 82.5258 68.2409 82.724 67.5741C82.9221 66.9073 82.9858 66.2077 82.9113 65.5161C82.8368 64.8245 82.6256 64.1545 82.2899 63.5452C81.9543 62.9359 81.5009 62.3994 80.9561 61.9668L80.9619 61.9649Z" fill="#4D4D4D"/>
</svg>
