<svg width="32" height="32" viewBox="0 0 32 32" fill="none" xmlns="http://www.w3.org/2000/svg">
<path d="M20.1343 20.1453L20.7416 19.5416C21.5811 18.7068 22.8896 18.5353 23.9637 19.1192L26.5111 20.504C28.1469 21.3932 28.5075 23.5727 27.2289 24.844L25.3348 26.7272C24.8532 27.2061 24.2556 27.5561 23.5684 27.6201M4.00385 9.99414C3.95686 9.16745 4.3443 8.42224 4.92246 7.84736L7.01526 5.76644C8.18128 4.60705 10.147 4.78656 11.1643 6.14544L12.8456 8.3913C13.6676 9.48921 13.5788 10.9931 12.6367 11.9298L12.2543 12.3101" stroke="#171717" stroke-width="2"/>
<path d="M23.5684 27.6201C21.3959 27.8227 16.0829 27.5989 10.4205 21.9688C5.08101 16.6596 4.12411 12.1091 4.00391 9.99414" stroke="#171717" stroke-width="2"/>
<path d="M20.1342 20.1449C20.1342 20.1449 18.6908 21.5801 14.7508 17.6625C10.8107 13.7448 12.2542 12.3096 12.2542 12.3096" stroke="#171717" stroke-width="2" stroke-linecap="round"/>
</svg>
