<svg width="30" height="30" viewBox="0 0 30 30" fill="none" xmlns="http://www.w3.org/2000/svg">
<path d="M12.2735 9.32058L14.1112 7.27096C14.5003 6.83746 14.4997 6.18057 14.11 5.74779L10.2261 1.43427C9.83057 0.994962 9.16511 0.931294 8.69257 1.28644L3.3252 5.3356C2.89444 5.66053 2.75055 6.2418 2.98007 6.73008C2.98007 6.73008 3.59746 8.17663 4.18328 9.29048C5.79107 12.3516 8.47465 16.0115 10.8944 18.6989C13.3144 21.3867 16.6738 24.4381 19.5501 26.3571C20.5966 27.0561 21.9707 27.8213 21.9707 27.8213C22.4324 28.1006 23.0254 28.0182 23.3933 27.6235L27.9813 22.7088C28.3843 22.2763 28.3904 21.6078 27.9952 21.1689L24.111 16.855C23.7213 16.4222 23.0681 16.3529 22.596 16.6942L20.3658 18.308C19.9237 18.6278 19.3166 18.5892 18.9183 18.2159C18.9183 18.2159 17.1571 16.8923 15.2515 14.7759C13.3465 12.6601 12.2139 10.7699 12.2139 10.7699C11.8842 10.3347 11.9092 9.72683 12.2735 9.32058Z" />
</svg>
