<svg width="30" height="30" viewBox="0 0 30 30" fill="none" xmlns="http://www.w3.org/2000/svg">
<path d="M12.2755 9.32058L14.1132 7.27096C14.5023 6.83746 14.5017 6.18057 14.112 5.74779L10.2281 1.43427C9.83253 0.994962 9.16706 0.931294 8.69452 1.28644L3.32715 5.3356C2.89639 5.66053 2.7525 6.2418 2.98203 6.73008C2.98203 6.73008 3.59941 8.17663 4.18524 9.29048C5.79302 12.3516 8.4766 16.0115 10.8963 18.6989C13.3164 21.3867 16.6758 24.4381 19.5521 26.3571C20.5986 27.0561 21.9727 27.8213 21.9727 27.8213C22.4343 28.1006 23.0274 28.0182 23.3953 27.6235L27.9833 22.7088C28.3862 22.2763 28.3924 21.6078 27.9972 21.1689L24.113 16.855C23.7232 16.4222 23.07 16.3529 22.598 16.6942L20.3678 18.308C19.9257 18.6278 19.3185 18.5892 18.9202 18.2159C18.9202 18.2159 17.1591 16.8923 15.2534 14.7759C13.3484 12.6601 12.2158 10.7699 12.2158 10.7699C11.8862 10.3347 11.9112 9.72683 12.2755 9.32058Z" fill="#C49B48"/>
</svg>
