<svg viewBox="0 0 100 100" fill="none" xmlns="http://www.w3.org/2000/svg">
<path d="M91.666 24.9997V35.083C91.666 41.6663 87.4993 45.833 80.916 45.833H66.666V16.708C66.666 12.083 70.4577 8.33301 75.0827 8.33301C79.6244 8.37467 83.791 10.208 86.791 13.208C89.791 16.2497 91.666 20.4163 91.666 24.9997Z" stroke="currentColor" stroke-width="6" stroke-miterlimit="10" stroke-linecap="round" stroke-linejoin="round"/>
<path d="M8.33398 29.1663V87.4997C8.33398 90.958 12.2506 92.9163 15.0006 90.833L22.1257 85.4997C23.7923 84.2497 26.1257 84.4163 27.6257 85.9163L34.5422 92.8747C36.1672 94.4997 38.8341 94.4997 40.4591 92.8747L47.459 85.8747C48.9173 84.4163 51.2506 84.2497 52.8756 85.4997L60.0006 90.833C62.7506 92.8747 66.6673 90.9163 66.6673 87.4997V16.6663C66.6673 12.083 70.4173 8.33301 75.0006 8.33301H29.1673H25.0007C12.5007 8.33301 8.33398 15.7913 8.33398 24.9997V29.1663Z" stroke="currentColor" stroke-width="6" stroke-miterlimit="10" stroke-linecap="round" stroke-linejoin="round"/>
<path d="M25 37.5H50" stroke="currentColor" stroke-width="6" stroke-linecap="round" stroke-linejoin="round"/>
<path d="M28.125 54.167H46.875" stroke="currentColor" stroke-width="6" stroke-linecap="round" stroke-linejoin="round"/>
</svg>
