<svg width="36" height="36" viewBox="0 0 36 36" fill="none" xmlns="http://www.w3.org/2000/svg">
<path d="M24.0454 15.0454C24.4848 14.6062 24.4848 13.8938 24.0454 13.4545C23.6061 13.0152 22.8939 13.0152 22.4545 13.4545L15.75 20.1589L13.5455 17.9545C13.1062 17.5152 12.3938 17.5152 11.9545 17.9545C11.5152 18.3939 11.5152 19.1061 11.9545 19.5454L14.9545 22.5454C15.3939 22.9848 16.1061 22.9848 16.5454 22.5454L24.0454 15.0454Z" fill="white"/>
<path fill-rule="evenodd" clip-rule="evenodd" d="M18.0861 1.875H17.9139C14.4514 1.87499 11.7378 1.87497 9.62057 2.15963C7.45345 2.45099 5.74343 3.059 4.40121 4.40121C3.059 5.74343 2.45099 7.45345 2.15963 9.62057C1.87497 11.7378 1.87499 14.4513 1.875 17.9139V18.0861C1.87499 21.5487 1.87497 24.2622 2.15963 26.3794C2.45099 28.5465 3.059 30.2567 4.40121 31.5989C5.74343 32.9411 7.45345 33.549 9.62057 33.8405C11.7378 34.125 14.4513 34.125 17.9139 34.125H18.0861C21.5487 34.125 24.2622 34.125 26.3794 33.8405C28.5465 33.549 30.2567 32.9411 31.5989 31.5989C32.9411 30.2567 33.549 28.5465 33.8405 26.3794C34.125 24.2622 34.125 21.5487 34.125 18.0861V17.9139C34.125 14.4513 34.125 11.7378 33.8405 9.62057C33.549 7.45345 32.9411 5.74343 31.5989 4.40121C30.2567 3.059 28.5465 2.45099 26.3794 2.15963C24.2622 1.87497 21.5487 1.87499 18.0861 1.875ZM5.9922 5.9922C6.84668 5.13771 8.00276 4.64738 9.92037 4.38955C11.8703 4.12739 14.4327 4.125 18 4.125C21.5673 4.125 24.1296 4.12739 26.0796 4.38955C27.9972 4.64738 29.1532 5.13771 30.0078 5.9922C30.8623 6.84668 31.3527 8.00276 31.6104 9.92037C31.8726 11.8703 31.875 14.4327 31.875 18C31.875 21.5673 31.8726 24.1296 31.6104 26.0796C31.3527 27.9972 30.8623 29.1532 30.0078 30.0078C29.1532 30.8623 27.9972 31.3527 26.0796 31.6104C24.1296 31.8726 21.5673 31.875 18 31.875C14.4327 31.875 11.8703 31.8726 9.92037 31.6104C8.00276 31.3527 6.84668 30.8623 5.9922 30.0078C5.13771 29.1532 4.64738 27.9972 4.38955 26.0796C4.12739 24.1296 4.125 21.5673 4.125 18C4.125 14.4327 4.12739 11.8703 4.38955 9.92037C4.64738 8.00276 5.13771 6.84668 5.9922 5.9922Z" fill="white"/>
</svg>
