<svg width="56" height="56" viewBox="0 0 56 56" fill="none" xmlns="http://www.w3.org/2000/svg">
<g clip-path="url(#clip0_1572_9853)">
<path fill-rule="evenodd" clip-rule="evenodd" d="M46.1464 10.3362C48.6848 9.26738 51.4062 11.4139 50.9579 14.1315L45.6638 46.2305C45.1533 49.3254 41.7541 51.1013 38.9147 49.559C36.5386 48.2684 33.0134 46.2821 29.8364 44.2061C28.2499 43.1694 23.3922 39.8453 23.9893 37.4791C24.4998 35.4559 32.6662 27.8541 37.3329 23.3333C39.166 21.5574 38.3311 20.5315 36.1662 22.1666C30.7958 26.2226 22.1737 32.3894 19.3225 34.1249C16.8069 35.6561 15.4934 35.9174 13.9267 35.6561C11.0657 35.1794 8.41325 34.4411 6.24773 33.5435C3.32086 32.3301 3.46343 28.3079 6.24574 27.1366L46.1464 10.3362Z" fill="white"/>
</g>
<defs>
<clipPath id="clip0_1572_9853">
<rect width="56" height="56" fill="white"/>
</clipPath>
</defs>
</svg>
