<svg width="100" height="100" viewBox="0 0 100 100" fill="none" xmlns="http://www.w3.org/2000/svg">
<path d="M75.5808 90.0825C71.9141 91.1658 67.5808 91.6658 62.4975 91.6658H37.4974C32.414 91.6658 28.0807 91.1658 24.4141 90.0825C25.3307 79.2491 36.4557 70.707 49.9975 70.707C63.5391 70.707 74.6641 79.2491 75.5808 90.0825Z" stroke="#1C1C1C" stroke-width="6" stroke-linecap="round" stroke-linejoin="round"/>
<path d="M91.6673 37.4997V62.4997C91.6673 78.2497 86.9173 86.8747 75.584 90.083C71.9173 91.1663 67.584 91.6663 62.5006 91.6663H37.5006C32.4173 91.6663 28.084 91.1663 24.4173 90.083C13.084 86.8747 8.33398 78.2497 8.33398 62.4997V37.4997C8.33398 16.6663 16.6673 8.33301 37.5006 8.33301H62.5006C83.334 8.33301 91.6673 16.6663 91.6673 37.4997Z" stroke="#1C1C1C" stroke-width="6" stroke-linecap="round" stroke-linejoin="round"/>
<path d="M64.9153 44.0837C64.9153 52.3337 58.2486 59.042 49.9986 59.042C41.7486 59.042 35.082 52.3337 35.082 44.0837C35.082 35.8337 41.7486 29.167 49.9986 29.167C58.2486 29.167 64.9153 35.8337 64.9153 44.0837Z" stroke="#1C1C1C" stroke-width="6" stroke-linecap="round" stroke-linejoin="round"/>
</svg>
